<svg id="HOW_TO_CHECK_PLAGIARISM_" data-name="HOW TO CHECK PLAGIARISM?" xmlns="http://www.w3.org/2000/svg" width="734.869" height="535.836" viewBox="0 0 734.869 535.836">
  <g id="back" transform="translate(143.044)">
    <path id="Path_393" data-name="Path 393" d="M991.041,718.338" transform="translate(-851.702 -460.189)" fill="none" stroke="#ffccd6" stroke-miterlimit="10" stroke-width="119.048"/>
    <g id="Group_577" data-name="Group 577" transform="translate(58.805 233.735)">
      <path id="Path_397" data-name="Path 397" d="M1320.284,672.04q-1.469-.416-2.949-.808l.471-1.785q1.5.394,2.983.817Z" transform="translate(-1110.287 -663.99)" fill="#9bc1ff"/>
      <path id="Path_398" data-name="Path 398" d="M785.546,847.715a166.993,166.993,0,0,1-2.21-27.095c0-57.377,29.394-108.017,74.176-137.808a164.6,164.6,0,0,1,57.13-23.931c1.958-.416,4.225-.847,6.508-1.232a166.689,166.689,0,0,1,59.446.822l-.356,1.812a164.821,164.821,0,0,0-58.746-.819c-2.141.357-4.268.756-6.726,1.269A163.633,163.633,0,0,0,785.182,820.62a165.118,165.118,0,0,0,2.186,26.794Z" transform="translate(-783.336 -655.373)" fill="#9bc1ff"/>
      <path id="Path_402" data-name="Path 402" d="M1550.527,1007.17a163.87,163.87,0,0,0,5.937-103.113,4.572,4.572,0,0,0,1.8-.412,165.473,165.473,0,0,1-5.925,103.883C1552.25,1007.872,1550.44,1006.885,1550.527,1007.17Z" transform="translate(-1233.455 -781.428)" fill="#9bc1ff"/>
      <path id="Path_403" data-name="Path 403" d="M1565.663,854.59q-.65-1.045-1.314-2.08l1.553-1q.672,1.045,1.328,2.1Z" transform="translate(-1261.525 -775.463)" fill="#9bc1ff"/>
      <path id="Path_404" data-name="Path 404" d="M1471.187,757.248a163.581,163.581,0,0,0-44.623-39.5l.952-1.581a165.392,165.392,0,0,1,45.125,39.944Z" transform="translate(-1177.164 -692.595)" fill="#9bc1ff"/>
    </g>
    <g id="Group_578" data-name="Group 578" transform="translate(20.105 434.729)">
      <path id="Path_478" data-name="Path 478" d="M0,0H68.684l.607,1.846H0Z" transform="matrix(0.966, -0.257, 0.257, 0.966, 0, 17.823)" fill="#9bc1ff"/>
    </g>
    <g id="Group_579" data-name="Group 579" transform="translate(365.668 436.1)">
      <path id="Path_477" data-name="Path 477" d="M1.846.04V66.049H0V0Z" transform="matrix(0.259, -0.966, 0.966, 0.259, 0, 1.783)" fill="#9bc1ff"/>
    </g>
    <g id="Group_580" data-name="Group 580" transform="translate(383.952 282.712)">
      <rect id="Rectangle_267" data-name="Rectangle 267" width="72.806" height="1.846" transform="matrix(0.891, -0.454, 0.454, 0.891, 0, 33.071)" fill="#9bc1ff"/>
    </g>
    <g id="Group_581" data-name="Group 581" transform="translate(277.528 135.327)">
      <rect id="Rectangle_272" data-name="Rectangle 272" width="130.446" height="1.846" transform="translate(0 121.781) rotate(-68.999)" fill="#9bc1ff"/>
    </g>
    <g id="Group_582" data-name="Group 582" transform="translate(122.111 135.326)">
      <path id="Path_476" data-name="Path 476" d="M0,0H1.846V137.575L0,137.591Z" transform="translate(0 0.662) rotate(-20.999)" fill="#9bc1ff"/>
    </g>
    <g id="Group_583" data-name="Group 583" transform="translate(0 284.207)">
      <path id="Path_479" data-name="Path 479" d="M.321,0,1.843.133l0,27.388v77.463L0,104.765V27.648Z" transform="matrix(0.454, -0.891, 0.891, 0.454, 0, 1.645)" fill="#9bc1ff"/>
    </g>
    <ellipse id="Ellipse_15" data-name="Ellipse 15" cx="33.309" cy="33.309" rx="33.309" ry="33.309" transform="translate(325.262 40.506)" fill="#e0f7ea"/>
    <path id="Path_470" data-name="Path 470" d="M504.922,1238.071l-1.542-1.884a67.547,67.547,0,1,0-110.292-53.169l-2.436-.031a69.982,69.982,0,1,1,114.271,55.084Z" transform="translate(-113.398 -1113.906)" fill="#9bc1ff"/>
    <path id="Path_471" data-name="Path 471" d="M466.912,1348.031a70.3,70.3,0,0,1-63.394-40.3l2.205-1.035a67.666,67.666,0,0,0,74.778,37.533l.488,2.387A70.578,70.578,0,0,1,466.912,1348.031Z" transform="translate(-119.682 -1208.067)" fill="#9bc1ff"/>
  </g>
  <g id="Group_601" data-name="Group 601" transform="translate(172.021)">
    <path id="Path_419" data-name="Path 419" d="M593.518,1365.857l-1.2-2.122c1.143-.645,2.3-1.343,3.427-2.074l1.321,2.046C595.9,1364.464,594.7,1365.188,593.518,1365.857Z" transform="translate(-489.148 -1234.913)" fill="#9bc1ff"/>
    <path id="Path_420" data-name="Path 420" d="M504.922,1238.071l-1.542-1.884a67.547,67.547,0,1,0-110.292-53.169l-2.436-.031a69.982,69.982,0,1,1,114.271,55.084Z" transform="translate(-390.651 -1113.906)" fill="#9bc1ff"/>
    <path id="Path_421" data-name="Path 421" d="M466.912,1348.031a70.3,70.3,0,0,1-63.394-40.3l2.205-1.035a67.666,67.666,0,0,0,74.778,37.533l.488,2.387A70.578,70.578,0,0,1,466.912,1348.031Z" transform="translate(-396.935 -1208.067)" fill="#9bc1ff"/>
  </g>
  <circle id="Ellipse_24" data-name="Ellipse 24" cx="57.826" cy="57.826" r="57.826" transform="translate(184.163 12.146)" fill="#2e6ed7"/>
  <g id="Group_602" data-name="Group 602" transform="translate(190.966 420.332)">
    <g id="Ellipse_21" data-name="Ellipse 21" fill="#a9bcdb" stroke="#ebf1fb" stroke-width="7">
      <circle cx="20.976" cy="20.976" r="20.976" stroke="none"/>
      <circle cx="20.976" cy="20.976" r="24.476" fill="none"/>
    </g>
    <text id="_1" data-name="1" transform="translate(20.874 26.205)" fill="#fff" font-size="20" font-family="Questrial-Regular, Questrial"><tspan x="-5.5" y="0">1</tspan></text>
  </g>
  <g id="Group_603" data-name="Group 603" transform="translate(198.903 301.278)">
    <g id="Ellipse_21-2" data-name="Ellipse 21" fill="#a9bcdb" stroke="#ebf1fb" stroke-width="7">
      <circle cx="20.976" cy="20.976" r="20.976" stroke="none"/>
      <circle cx="20.976" cy="20.976" r="24.476" fill="none"/>
    </g>
    <text id="_2" data-name="2" transform="translate(20.874 26.205)" fill="#fff" font-size="20" font-family="Questrial-Regular, Questrial"><tspan x="-5.5" y="0">2</tspan></text>
  </g>
  <g id="Group_604" data-name="Group 604" transform="translate(288.478 225.31)">
    <g id="Ellipse_21-3" data-name="Ellipse 21" fill="#a9bcdb" stroke="#ebf1fb" stroke-width="7">
      <circle cx="20.976" cy="20.976" r="20.976" stroke="none"/>
      <circle cx="20.976" cy="20.976" r="24.476" fill="none"/>
    </g>
    <text id="_3" data-name="3" transform="translate(20.874 26.205)" fill="#fff" font-size="20" font-family="Questrial-Regular, Questrial"><tspan x="-5.5" y="0">3</tspan></text>
  </g>
  <g id="Group_605" data-name="Group 605" transform="translate(401.863 225.31)">
    <circle id="Ellipse_21-4" data-name="Ellipse 21" cx="20.976" cy="20.976" r="20.976" fill="#a9bcdb"/>
    <text id="_4" data-name="4" transform="translate(20.874 26.205)" fill="#fff" font-size="20" font-family="Questrial-Regular, Questrial"><tspan x="-5.5" y="0">4</tspan></text>
  </g>
  <g id="Group_606" data-name="Group 606" transform="translate(489.169 305.813)">
    <circle id="Ellipse_21-5" data-name="Ellipse 21" cx="20.976" cy="20.976" r="20.976" transform="translate(0)" fill="#a9bcdb"/>
    <text id="_5" data-name="5" transform="translate(20.874 26.205)" fill="#fff" font-size="20" font-family="Questrial-Regular, Questrial"><tspan x="-5.5" y="0">5</tspan></text>
  </g>
  <g id="Group_607" data-name="Group 607" transform="translate(503.909 420.332)">
    <g id="Ellipse_21-6" data-name="Ellipse 21" transform="translate(0)" fill="#a9bcdb" stroke="#ebf1fb" stroke-width="7">
      <circle cx="20.976" cy="20.976" r="20.976" stroke="none"/>
      <circle cx="20.976" cy="20.976" r="24.476" fill="none"/>
    </g>
    <text id="_6" data-name="6" transform="translate(20.874 26.205)" fill="#fff" font-size="20" font-family="Questrial-Regular, Questrial"><tspan x="-5.5" y="0">6</tspan></text>
  </g>
  <g id="Group_626" data-name="Group 626" transform="translate(8.417 173.153)">
    <g id="Group_584" data-name="Group 584">
      <path id="Path_405" data-name="Path 405" d="M693.6,644.086c-.618-1.442-1.3-2.882-2.013-4.284l1.644-.842c.737,1.439,1.432,2.919,2.067,4.4Z" transform="translate(-557.541 -599.863)" fill="#9bc1ff"/>
      <path id="Path_406" data-name="Path 406" d="M549.859,568.522a70.026,70.026,0,0,0-79.509-24.635l-.61-1.742a71.868,71.868,0,0,1,81.606,25.282Z" transform="translate(-421.71 -538.125)" fill="#9bc1ff"/>
      <path id="Path_407" data-name="Path 407" d="M409.361,580.7l-1.226-1.381c1.353-1.2,2.762-2.36,4.187-3.444l1.118,1.469C412.052,578.4,410.68,579.525,409.361,580.7Z" transform="translate(-383.991 -561.236)" fill="#9bc1ff"/>
      <path id="Path_408" data-name="Path 408" d="M417.637,729.439a71.778,71.778,0,0,1-58.55-113.289l1.506,1.069a69.928,69.928,0,0,0,106.94,89.44l1.317,1.293A71.243,71.243,0,0,1,417.637,729.439Z" transform="translate(-345.866 -585.897)" fill="#9bc1ff"/>
    </g>
    <circle id="Ellipse_23" data-name="Ellipse 23" cx="57.826" cy="57.826" r="57.826" transform="translate(14.74 13.606)" fill="#2e6ed7"/>
    <g id="Group_608" data-name="Group 608" transform="translate(51.023 44.22)">
      <g id="Rectangle_277" data-name="Rectangle 277" transform="translate(0 0)" fill="none" stroke="#31c573" stroke-width="2">
        <rect width="38.551" height="49.889" stroke="none"/>
        <rect x="1" y="1" width="36.551" height="47.889" fill="none"/>
      </g>
      <rect id="Rectangle_278" data-name="Rectangle 278" width="38.551" height="48.756" transform="translate(5.669 5.669)" fill="#fff"/>
      <g id="Group_609" data-name="Group 609" transform="translate(12.472 19.275)">
        <line id="Line_1" data-name="Line 1" x2="23.811" transform="translate(0 7.937)" fill="none" stroke="#2e6ed7" stroke-width="2"/>
        <line id="Line_2" data-name="Line 2" x2="23.811" transform="translate(0 15.874)" fill="none" stroke="#2e6ed7" stroke-width="2"/>
        <path id="Path_468" data-name="Path 468" d="M0,0H17.649" transform="translate(3.535 23.176)" fill="none" stroke="#2e6ed7" stroke-width="2"/>
        <line id="Line_3" data-name="Line 3" x2="23.811" transform="translate(0 0)" fill="none" stroke="#2e6ed7" stroke-width="2"/>
      </g>
    </g>
  </g>
  <g id="Group_612" data-name="Group 612" transform="translate(203.439 34.823)">
    <g id="webpage" transform="translate(11.339 7.937)">
      <g id="Group_610" data-name="Group 610" transform="translate(0 0)">
        <rect id="Rectangle_279" data-name="Rectangle 279" width="56.693" height="49.889" rx="6" fill="#fff"/>
      </g>
      <g id="Group_611" data-name="Group 611" transform="translate(0 0)">
        <path id="Rectangle_279-2" data-name="Rectangle 279" d="M6,0H50.693a6,6,0,0,1,6,6v8.74a0,0,0,0,1,0,0H0a0,0,0,0,1,0,0V6A6,6,0,0,1,6,0Z" fill="#e0e8f5"/>
      </g>
    </g>
    <rect id="Rectangle_280" data-name="Rectangle 280" width="58.96" height="17.008" rx="4" transform="translate(0 28.346)" fill="#31c573"/>
    <text id="HTTP:_" data-name="HTTP://" transform="translate(7.937 41.614)" fill="#fff" font-size="13" font-family="Questrial-Regular, Questrial"><tspan x="0" y="0">HTTP://</tspan></text>
    <circle id="Ellipse_25" data-name="Ellipse 25" cx="13.039" cy="13.039" r="13.039" transform="translate(51.023)" fill="#31c573"/>
    <g id="XMLID_105_" transform="translate(57.302 6.28)">
      <path id="XMLID_106_" d="M7.278,106.779l-2.069,2.069h0a2.194,2.194,0,0,1-3.1-3.1h0l2.069-2.069a.731.731,0,0,0-1.034-1.034L1.071,104.71h0a3.657,3.657,0,0,0,5.173,5.172h0l2.069-2.069a.731.731,0,0,0-1.034-1.034Z" transform="translate(0 -97.434)"/>
      <path id="XMLID_107_" d="M110.951,3.691a3.657,3.657,0,0,0-6.243-2.586h0l-2.069,2.069a.731.731,0,1,0,1.034,1.034l2.069-2.069h0a2.194,2.194,0,0,1,3.1,3.1h0l-2.069,2.069a.731.731,0,1,0,1.035,1.034l2.069-2.069h0A3.634,3.634,0,0,0,110.951,3.691Z" transform="translate(-97.43 -0.036)"/>
      <path id="XMLID_108_" d="M81.428,86.6a.731.731,0,0,0,1.034,0L86.6,82.462a.731.731,0,0,0-1.034-1.034l-4.138,4.138A.731.731,0,0,0,81.428,86.6Z" transform="translate(-77.253 -77.255)"/>
    </g>
  </g>
  <circle id="Ellipse_26" data-name="Ellipse 26" cx="57.826" cy="57.826" r="57.826" transform="translate(432.477 12.146)" fill="#2e6ed7"/>
  <g id="Upload_Content" data-name="Upload Content" transform="translate(460.165 37.297)">
    <path id="Path_1913" data-name="Path 1913" d="M823.084,755.047h8.237V702.882H781.251v52.165h8.238" transform="translate(-781.251 -702.882)" fill="#e0e8f5"/>
    <path id="Path_1913-2" data-name="Path 1913" d="M823.084,755.047h8.237V702.882H781.251v52.165h8.238" transform="translate(-775.582 -697.151)" fill="#fff"/>
    <g id="Group_613" data-name="Group 613" transform="translate(16.532 19.743)">
      <line id="Line_1-2" data-name="Line 1" x2="23.811" transform="translate(0 7.937)" fill="none" stroke="#cbd6e8" stroke-width="2"/>
      <line id="Line_2-2" data-name="Line 2" x2="23.811" transform="translate(0.567 15.874)" fill="none" stroke="#cbd6e8" stroke-width="2"/>
      <path id="Path_468-2" data-name="Path 468" d="M0,0H17.649" transform="translate(0.567 23.176)" fill="none" stroke="#cbd6e8" stroke-width="2"/>
      <line id="Line_3-2" data-name="Line 3" x2="23.811" transform="translate(0 0)" fill="none" stroke="#cbd6e8" stroke-width="2"/>
    </g>
    <circle id="Ellipse_132" data-name="Ellipse 132" cx="17.01" cy="17.01" r="17.01" transform="translate(38.73 31.331)" fill="#0cc787"/>
    <g id="Solid" transform="translate(47.348 39.946)">
      <path id="Path_472" data-name="Path 472" d="M142.973,28.757l1.793-1.793v9.483a.868.868,0,1,0,1.737,0V26.964l1.793,1.793a.868.868,0,1,0,1.228-1.228l-3.275-3.275a.868.868,0,0,0-1.228,0l-3.275,3.275a.868.868,0,1,0,1.228,1.228Z" transform="translate(-137.239 -23.999)"/>
      <path id="Path_473" data-name="Path 473" d="M39.922,232a.868.868,0,0,0-.868.868v6.658H25.737v-6.658a.868.868,0,1,0-1.737,0v6.948a1.447,1.447,0,0,0,1.447,1.447h13.9a1.447,1.447,0,0,0,1.447-1.447v-6.948A.868.868,0,0,0,39.922,232Z" transform="translate(-24 -224.473)"/>
    </g>
  </g>
  <g id="Group_624" data-name="Group 624" transform="translate(0 394.254)">
    <g id="Group_588" data-name="Group 588">
      <path id="Path_419-2" data-name="Path 419" d="M593.532,1365.906l-1.212-2.147c1.156-.652,2.322-1.358,3.467-2.1l1.337,2.07C595.938,1364.5,594.731,1365.229,593.532,1365.906Z" transform="translate(-487.956 -1233.448)" fill="#9bc1ff"/>
      <path id="Path_420-2" data-name="Path 420" d="M506.243,1239.507l-1.56-1.906a68.328,68.328,0,1,0-111.567-53.783l-2.464-.031a70.792,70.792,0,1,1,115.592,55.721Z" transform="translate(-390.651 -1113.906)" fill="#9bc1ff"/>
      <path id="Path_421-2" data-name="Path 421" d="M467.645,1348.51a71.112,71.112,0,0,1-64.127-40.767l2.231-1.047a68.447,68.447,0,0,0,75.643,37.967l.494,2.414A71.377,71.377,0,0,1,467.645,1348.51Z" transform="translate(-396.859 -1206.927)" fill="#9bc1ff"/>
    </g>
    <g id="Group_615" data-name="Group 615" transform="translate(12.472 12.472)">
      <circle id="Ellipse_22" data-name="Ellipse 22" cx="57.826" cy="57.826" r="57.826" fill="#2e6ed7"/>
      <g id="Access_Plagiarism_Checker" data-name="Access Plagiarism Checker" transform="translate(26.079 28.346)">
        <path id="Path_1909" data-name="Path 1909" d="M628.351,714.29h11.578v46.334H602.29v-11.59" transform="translate(-581.934 -702.702)" fill="#31c474"/>
        <rect id="Rectangle_406" data-name="Rectangle 406" width="37.648" height="46.335" transform="translate(8.768 0)" fill="#fff"/>
        <path id="Path_1910" data-name="Path 1910" d="M604.572,720.98l-20.356,7.356,7.517,2.384-5.775,5.775,3.1,3.1,5.775-5.775,2.384,7.517Z" transform="translate(-584.216 -701.857)"/>
      </g>
    </g>
  </g>
  <g id="Group_625" data-name="Group 625" transform="translate(590.736 173.153)">
    <g id="Group_617" data-name="Group 617" transform="translate(0)">
      <path id="Path_474" data-name="Path 474" d="M504.922,1238.071l-1.542-1.884a67.547,67.547,0,1,0-110.292-53.169l-2.436-.031a69.982,69.982,0,1,1,114.271,55.084Z" transform="translate(-390.651 -1113.906)" fill="#9bc1ff"/>
      <path id="Path_475" data-name="Path 475" d="M466.912,1348.031a70.3,70.3,0,0,1-63.394-40.3l2.205-1.035a67.666,67.666,0,0,0,74.778,37.533l.488,2.387A70.578,70.578,0,0,1,466.912,1348.031Z" transform="translate(-396.935 -1208.067)" fill="#9bc1ff"/>
    </g>
    <circle id="Ellipse_27" data-name="Ellipse 27" cx="57.826" cy="57.826" r="57.826" transform="translate(11.339 12.472)" fill="#2e6ed7"/>
    <g id="Group_616" data-name="Group 616" transform="translate(48.756 36.283)">
      <g id="Click_Button" data-name="Click Button" transform="translate(0 0)">
        <path id="Path_1915" data-name="Path 1915" d="M1155.412,740.242v2.721h-.032v8.882a14.03,14.03,0,0,1-14.03,14.03h-7.3a11.164,11.164,0,0,1-9.385-5.116l-9.566-14.844a3.8,3.8,0,0,1,6.038-4.6l6.861,7.66.018-5.244V717.634a3.5,3.5,0,0,1,3.18-3.526,3.433,3.433,0,0,1,3.677,3.422v18.094a3.433,3.433,0,0,1,6.826.464v1.985a3.427,3.427,0,0,1,6.854,0v2.166a3.433,3.433,0,1,1,6.858,0Z" transform="translate(-1114.098 -698.553)" fill="#0cc787"/>
        <path id="Path_1916" data-name="Path 1916" d="M1124.8,722.511a10.214,10.214,0,1,1,14.445,0" transform="translate(-1114.629 -697.901)" fill="none" stroke="#fff" stroke-linecap="round" stroke-linejoin="round" stroke-width="2"/>
        <path id="Path_1917" data-name="Path 1917" d="M1119.163,727.024a17.387,17.387,0,1,1,24.586,0" transform="translate(-1114.07 -697.343)" fill="none" stroke="#fff" stroke-linecap="round" stroke-linejoin="round" stroke-width="2"/>
      </g>
    </g>
  </g>
  <g id="Group_623" data-name="Group 623" transform="translate(594.91 394.254)">
    <g id="Group_618" data-name="Group 618" transform="translate(0)">
      <path id="Path_474-2" data-name="Path 474" d="M504.922,1238.071l-1.542-1.884a67.547,67.547,0,1,0-110.292-53.169l-2.436-.031a69.982,69.982,0,1,1,114.271,55.084Z" transform="translate(-390.651 -1113.906)" fill="#9bc1ff"/>
      <path id="Path_475-2" data-name="Path 475" d="M466.912,1348.031a70.3,70.3,0,0,1-63.394-40.3l2.205-1.035a67.666,67.666,0,0,0,74.778,37.533l.488,2.387A70.578,70.578,0,0,1,466.912,1348.031Z" transform="translate(-396.935 -1208.067)" fill="#9bc1ff"/>
    </g>
    <circle id="Ellipse_29" data-name="Ellipse 29" cx="57.826" cy="57.826" r="57.826" transform="translate(10.566 12.472)" fill="#2e6ed7"/>
    <g id="Group_622" data-name="Group 622" transform="translate(46.85 40.819)">
      <g id="Group_620" data-name="Group 620">
        <rect id="Rectangle_282" data-name="Rectangle 282" width="38.551" height="48.756" fill="#e0e8f5"/>
        <rect id="Rectangle_281" data-name="Rectangle 281" width="38.551" height="48.756" transform="translate(5.669 5.669)" fill="#fff"/>
      </g>
      <g id="check_7_" data-name="check (7)" transform="translate(11.971 17.074)">
        <path id="Path_480" data-name="Path 480" d="M12.973,0A12.973,12.973,0,1,0,25.947,12.973,12.988,12.988,0,0,0,12.973,0Zm0,0" fill="#0cc787"/>
        <path id="Path_481" data-name="Path 481" d="M153.715,167.174l-7.027,7.027a1.08,1.08,0,0,1-1.529,0l-3.514-3.514a1.081,1.081,0,0,1,1.529-1.529l2.749,2.749,6.263-6.263a1.081,1.081,0,1,1,1.529,1.529Zm0,0" transform="translate(-134.166 -156.95)" fill="#fafafa"/>
      </g>
    </g>
  </g>
  <circle id="Ellipse_32" data-name="Ellipse 32" cx="98.933" cy="98.933" r="98.933" transform="translate(269.568 283.907)" fill="#f8faff"/>
  <g id="Vector_Smart_Object" data-name="Vector Smart Object" transform="translate(303.193 335.169)">
    <g id="Group_574" data-name="Group 574" transform="translate(0 0)">
      <g id="Group_573" data-name="Group 573">
        <path id="Path_379" data-name="Path 379" d="M102.3,66.058c-2.881-3.2-5.781-6.366-8.7-9.529l-4.416-4.7q-2.19-2.36-4.434-4.67l-4.474-4.622-4.528-4.6c-3.032-3.051-6.063-6.082-9.169-9.077L65.2,27.53l-1.571.414c-.956.254-1.909.442-2.845.734s-1.871.584-2.769.9c-1.854.642-3.65,1.348-5.428,2.147-.373.16-.729.34-1.1.508l3.779,3.673.842.848c1.1-.33,2.227-.64,3.332-.9.86-.208,1.7-.386,2.545-.538.242-.046.449-.084.674-.122,2.489,2.807,4.977,5.574,7.5,8.361l4.359,4.736,4.416,4.7c1.478,1.571,2.956,3.135,4.434,4.67L87.856,62.3c1.516,1.553,3.05,3.115,4.585,4.66-1.1.376-2.209.744-3.294,1.158a93.508,93.508,0,0,0-9.469,4.143c-1.534.782-3.05,1.591-4.565,2.439-1.5.848-2.976,1.731-4.436,2.637-1.458.94-2.918,1.863-4.321,2.881-1.422,1-2.789,2.061-4.154,3.115-1.347,1.084-2.7,2.175-3.985,3.325-1.311,1.13-2.583,2.335-3.818,3.521-1.234,1.234-2.432,2.457-3.592,3.767-1.18,1.242-2.283,2.6-3.387,3.907-1.067,1.355-2.171,2.7-3.143,4.115-.993,1.4-1.985,2.807-2.9,4.274-.956,1.424-1.778,2.919-2.62,4.4-.431.716-.8,1.469-1.178,2.2-.262.584-.487,1.13-.711,1.7.86-1.15,1.683-2.317,2.563-3.447,1.067-1.318,2.078-2.651,3.2-3.931,1.067-1.3,2.207-2.543,3.33-3.767,1.16-1.224,2.34-2.411,3.5-3.6,1.216-1.148,2.394-2.317,3.667-3.4,1.216-1.1,2.507-2.147,3.8-3.191,1.291-1.028,2.563-2.071,3.91-3.013,1.311-1,2.676-1.911,4.043-2.825,1.365-.886,2.75-1.789,4.154-2.589,1.4-.84,2.807-1.649,4.248-2.429,1.42-.764,2.863-1.507,4.323-2.213s2.936-1.366,4.414-2,2.976-1.214,4.472-1.769c1.516-.556,3.014-1.1,4.53-1.581,1.534-.5,3.05-.942,4.583-1.338,1.5-.4,3.107-.782,4.454-1.016l6.848-1.226Z" transform="translate(-12.24 -25.553)" fill="#1f5ba7"/>
        <path id="Path_380" data-name="Path 380" d="M85.139,60.652c-2.676-2.881-5.39-5.706-8.1-8.513l-4.079-4.181c-1.367-1.394-2.752-2.777-4.116-4.143L64.7,39.722,60.55,35.663c-2.787-2.675-5.575-5.338-8.382-7.957L50.895,26.53l-1.14.678c-.673.4-1.367.744-2.04,1.2-.673.424-1.329.876-1.983,1.346-1.291.952-2.565,1.959-3.781,3.051a48.045,48.045,0,0,0-3.556,3.465c-1.122,1.244-2.225,2.543-3.292,3.861-1.067,1.338-2.078,2.713-3.05,4.171-.973,1.441-1.929,2.929-2.827,4.436-.9,1.533-1.74,3.115-2.563,4.716-.411.782-.8,1.619-1.178,2.457s-.749,1.657-1.067,2.523c.991-1.366,2.02-2.683,3.05-3.973s2.1-2.523,3.163-3.749,2.152-2.381,3.256-3.521c1.1-1.112,2.207-2.221,3.33-3.267s2.265-2.061,3.443-2.985c.58-.47,1.178-.9,1.758-1.374.582-.434,1.18-.886,1.778-1.292a37.012,37.012,0,0,1,3.612-2.249c.618-.348,1.236-.66,1.854-.952.167-.084.336-.16.5-.236,2.32,2.525,4.659,5.01,7,7.5l4.061,4.219,4.1,4.181c1.367,1.393,2.732,2.787,4.116,4.143l4.136,4.1c1.385,1.376,2.807,2.749,4.21,4.107-.787.556-1.554,1.11-2.32,1.713a67.416,67.416,0,0,0-6.548,5.724c-1.049,1.036-2.078,2.109-3.107,3.211-1.011,1.1-2,2.251-2.976,3.419-.954,1.186-1.907,2.353-2.825,3.633-.916,1.244-1.8,2.543-2.676,3.843-.86,1.338-1.7,2.673-2.507,4.059-.822,1.356-1.589,2.8-2.358,4.209-.747,1.467-1.478,2.919-2.152,4.442-.691,1.469-1.309,3.033-1.965,4.558-.6,1.563-1.216,3.107-1.758,4.726-.524,1.6-1.067,3.2-1.516,4.854-.5,1.619-.918,3.295-1.309,4.97-.413,1.639-.749,3.353-1.087,5.046.562-1.581,1.067-3.163,1.667-4.688.6-1.543,1.178-3.069,1.814-4.556.618-1.507,1.291-2.971,1.965-4.4.673-1.449,1.385-2.853,2.1-4.256.729-1.374,1.44-2.749,2.245-4.067.769-1.338,1.591-2.6,2.4-3.879.822-1.262,1.629-2.533,2.507-3.719.842-1.226,1.74-2.383,2.62-3.531.916-1.132,1.814-2.261,2.769-3.315.936-1.074,1.889-2.127,2.843-3.155.973-1.008,1.965-1.985,2.956-2.947.993-.942,2.022-1.863,3.052-2.731,1.029-.884,2.076-1.713,3.125-2.523,1.067-.81,2.114-1.6,3.2-2.335s2.171-1.421,3.276-2.071a36.412,36.412,0,0,1,3.218-1.731l5.032-2.317Z" transform="translate(-24.418 -26.53)" fill="#1f5ba7"/>
        <path id="Path_381" data-name="Path 381" d="M108.628,58.2c-3.705.152-5.352.16-8.515.452-.131.02-.242.028-.374.038l4.023,4.163c.56.584,1.14,1.148,1.7,1.721-2.62.038-5.259.142-7.877.322a158.677,158.677,0,0,0-17.479,2.117c-2.918.51-5.8,1.13-8.682,1.827-1.422.338-2.863.734-4.285,1.12-1.422.406-2.845.8-4.248,1.272-1.422.442-2.825.932-4.21,1.431-1.4.528-2.789,1.044-4.154,1.619l-2.058.846-2.02.934c-1.349.612-2.676,1.308-4.005,1.977,1.422-.376,2.825-.83,4.248-1.168,1.4-.368,2.807-.706,4.23-1.046,1.4-.338,2.825-.622,4.248-.924,1.422-.254,2.825-.546,4.248-.78,5.67-.99,11.34-1.657,17.01-2.1,2.843-.226,5.688-.358,8.513-.472,2.845-.112,5.67-.15,8.5-.15,2.825.018,5.652.094,8.439.206,1.4.058,2.825.132,4.21.236,1.367.1,2.807.216,4.1.348l7.766.858-6.624-7.467C112.987,62.963,110.985,60.77,108.628,58.2Z" transform="translate(-2.867 4.451)" fill="#181817"/>
        <path id="Path_382" data-name="Path 382" d="M130.88,74.247c-2.827-3.541-5.708-7.044-8.59-10.546l-4.359-5.2c-1.46-1.751-2.92-3.465-4.4-5.178l-4.434-5.16-4.472-5.1c-3.012-3.381-6.026-6.76-9.1-10.092l-1.254-1.358-1.609.264A57.644,57.644,0,0,0,81.984,34.8c-.86.32-1.72.67-2.563,1.028-.338.132-.656.272-.973.422l4.23,4.4c.018.008.038.028.056.038.224-.058.449-.132.691-.19,1.611-.414,3.22-.762,4.848-1.026,1.011-.17,2-.292,2.994-.4,2.489,3.135,4.977,6.224,7.486,9.311l4.321,5.254,4.361,5.206q2.187,2.615,4.4,5.188l4.434,5.14c1.18,1.358,2.378,2.713,3.574,4.079-1.158.056-2.318.1-3.461.178-4.005.282-7.971.744-11.938,1.338S96.5,76.073,92.575,76.939c-1.965.454-3.93.906-5.875,1.452a95.226,95.226,0,0,0-45.191,27.676c21-18.987,48-22.752,51.833-23.4q5.7-.948,11.491-1.479c3.816-.348,7.671-.574,11.507-.714,1.909-.058,3.818-.1,5.726-.086,1.891.02,3.856.056,5.632.15l8.59.462Z" transform="translate(-7.697 -21.558)" fill="#181817"/>
      </g>
    </g>
  </g>
</svg>
