<svg xmlns="http://www.w3.org/2000/svg" xmlns:xlink="http://www.w3.org/1999/xlink" width="947.234" height="709.824" viewBox="0 0 947.234 709.824"><defs><style>.a,.r,.s{fill:#fff;}.ab,.b{fill:none;}.b{stroke:#ff1a89;stroke-miterlimit:10;stroke-dasharray:4 4;}.c{fill:#08217e;}.d{fill:#ff9b75;}.e{fill:#011c68;}.f{fill:#00dfff;}.g{fill:#090f85;}.h{fill:#00c3ff;}.i{fill:url(#c);}.j{fill:url(#d);}.k{fill:#ff1a89;}.l{fill:#ff9e7f;}.m{fill:#c5f7ff;}.n{fill:#a3aec0;}.o{fill:#a9bf32;}.p{fill:#e1f0fc;}.q{fill:#00fecc;}.r{opacity:0.1;}.s{opacity:0.5;}.t{fill:#da2d46;opacity:0.2;}.u{fill:#494065;}.v{fill:#5880c0;}.w{fill:#d1e2e8;}.x{fill:#eeeff7;}.y{fill:#1b2529;}.z{fill:#2d64ad;}.aa{fill:#cf403e;}.ab{stroke:#ff0096;stroke-linecap:round;stroke-linejoin:round;}.ac{filter:url(#a);}</style><filter id="a" x="0" y="0.066" width="947.234" height="664.062" filterUnits="userSpaceOnUse"><feOffset dy="-53" input="SourceAlpha"/><feGaussianBlur stdDeviation="35.5" result="b"/><feFlood flood-color="#c6e4ff"/><feComposite operator="in" in2="b"/><feComposite in="SourceGraphic"/></filter><linearGradient id="c" x1="-3.902" y1="7.761" x2="-3.897" y2="7.761" gradientUnits="objectBoundingBox"><stop offset="0" stop-color="#18176e"/><stop offset="1" stop-color="#006996"/></linearGradient><linearGradient id="d" x1="-13.559" y1="23.55" x2="-13.544" y2="23.55" xlink:href="#c"/></defs><g transform="translate(-43.264 -6805)"><g class="ac" transform="matrix(1, 0, 0, 1, 43.26, 6805)"><path class="a" d="M-688.784,3001.306s-53.209-2.657-140.539-11.21-106.749-81.3-103.327-127.277,17.193-184.124,81.794-254.553,171.651-41.959,228.395-29.58,93.88,34.1,118.93,65.195,17.4,63.286,48.492,79.086,206.664,27.86,233.123,38.331,26.064,10.865,19.118,46.988-19.728,148.913-130.1,181.811-168.126,22.041-221.449,20.227S-688.784,3001.306-688.784,3001.306Z" transform="translate(1039.52 -2402.85)"/></g><g transform="translate(-229.598 6593.966)"><path class="b" d="M973.462,350.74S908.614,237.5,755.845,246.211c-115.3,6.575-214.457,35.59-213.759,3.493.7-32.134,41.914-25.148,75.444,11.875,37.014,40.87-3.462,127.472-77.564,178.049S436.8,684.259,492.5,727.2s140.387,55.88,188.612,32.356S765.8,619.588,834.019,597.24,939.9,557.892,976.365,524.958,1001.394,402.334,973.462,350.74Z"/><path class="c" d="M902.536,328.747c-28.277,17.673-15.531,102.039-15.437,105.6s.887,6.272-1.884,8.922-4.863,5.285-5.236,8.258-7.619,1.562-8.369,6.553-36.137,30.561-42.965,38.467,4.54,15.912,9.063,13.924,4.626-2.73,13.771-8.711,53.9-32.888,59.11-41.327,7.066-59.091,6.2-75.635C915.9,367.847,916.236,320.183,902.536,328.747Z"/><path class="d" d="M819.918,502.875c-3.849.956-5.673,2.493-11.3.3s-10.113,1.174-4,3.556,7.811,5.97,2.132,6.34-15.922,4.422-14.726,8.353c.915,3.007,2.171,3.323,6.283,4.924s19.427-.566,21.879-2.911,9.95-7.154,13.25-10.313,2.483-8.859-3.38-13.641C830.055,499.483,823.767,501.919,819.918,502.875Z"/><path class="e" d="M884.505,444.357c-2.771,2.65-4.863,5.284-5.237,8.257s-7.618,1.563-8.368,6.553c-.743,4.94-35.416,30.04-42.743,38.218,7.943-.747,19.219-6.856,30.431-19.012,14.212-15.41,21.629-14.564,26.323-20.628a62.386,62.386,0,0,0,7.477-12.87l-1.532-60.766a460.643,460.643,0,0,0-4.467,51.325C886.483,438.99,887.276,441.706,884.505,444.357Z"/><path class="d" d="M802.466,504.2c-.387,3.966,17.5,5.675,18.729,7.061s-3.657-6.907-3.657-6.907C807.749,503,802.852,500.232,802.466,504.2Z"/><path class="a" d="M849.267,850.583c-1.437,3.49-3.3,6.907-4.7,10.047-2.782,6.263-5.486,12.655-6.6,19.46-.774,4.73-.775,9.618-2.249,14.178-2.278,7.05-7.936,12.642-14.441,16.185s-13.843,5.25-21.145,6.5a16.1,16.1,0,0,1-5.124.3c-4-.609-7.1-4.123-8.3-7.99-2.2-7.093.9-14.643,4.075-21.359,3.321-7.035,6.811-14.054,11.533-20.237,4.175-5.469,8.561-10.419,12.325-16.223q5.777-8.9,10.785-18.275a23.927,23.927,0,0,0,11.979,7.184,71.261,71.261,0,0,0,14.011,2.006A26.264,26.264,0,0,1,849.267,850.583Z"/><path class="f" d="M788.662,891.426a134.232,134.232,0,0,1,8.673-16.159c-2.122,3.747-4.022,7.632-5.861,11.527-3.171,6.717-6.278,14.266-4.075,21.359,1.2,3.867,4.3,7.381,8.3,7.99a16.1,16.1,0,0,0,5.124-.3c7.3-1.251,14.639-2.958,21.145-6.5a33.236,33.236,0,0,0,10.577-8.889c-2.708,5.8-7.726,10.437-13.389,13.521-6.506,3.543-13.843,5.25-21.144,6.5a16.1,16.1,0,0,1-5.124.3c-4-.609-7.1-4.123-8.3-7.99C782.384,905.692,785.492,898.143,788.662,891.426Z"/><path class="c" d="M856.03,823.012c-1.635-4.461-6.755-6.448-11.368-7.586-3.256-.8-7.04-1.344-9.673.734a11.744,11.744,0,0,0-2.952,4.3q-3.008,6.2-6.016,12.4a2.453,2.453,0,0,0-.343,1.2,2.389,2.389,0,0,0,.745,1.347,37.908,37.908,0,0,0,17.614,11c7.274,2.065,7.533-5.783,9.69-10.894C855.353,831.659,857.584,827.25,856.03,823.012Z"/><path class="g" d="M814.582,867.783a.6.6,0,0,0,.175.08,56.7,56.7,0,0,1,12.918,5.216.583.583,0,0,0,.792-.226.594.594,0,0,0-.226-.793,57.81,57.81,0,0,0-13.184-5.323.582.582,0,0,0-.475,1.046Z"/><path class="g" d="M811.846,873.116a.609.609,0,0,0,.176.08,56.7,56.7,0,0,1,12.918,5.216.583.583,0,0,0,.792-.227.593.593,0,0,0-.227-.792,57.742,57.742,0,0,0-13.183-5.324.583.583,0,0,0-.476,1.047Z"/><path class="g" d="M809.111,878.443a.577.577,0,0,0,.175.08,56.7,56.7,0,0,1,12.918,5.216.583.583,0,0,0,.793-.227.594.594,0,0,0-.227-.792,57.785,57.785,0,0,0-13.183-5.323.583.583,0,0,0-.476,1.046Z"/><path class="f" d="M827.458,818.183a75.539,75.539,0,0,1,37.567,19.006A461.387,461.387,0,0,0,926.1,635.67c.2-3.063.359-6.113.494-9.176,4.915-1.111,9.855-2.235,14.795-3.433q4.26-1.038,8.509-2.161c2.828-.741,5.644-1.519,8.435-2.359.839-.247,1.667-.494,2.506-.741,14.091-4.335,27.663-9.941,39.778-18.277,13.684-9.423,22.8-36.567,19.426-58.278a45.8,45.8,0,0,0-3.322-11.621,27.145,27.145,0,0,0-2.074-3.939c-3.495-5.2-5.941-.926-14.363-1.642a242.545,242.545,0,0,0-50.09.963,9.761,9.761,0,0,0-5.076,1.642c-1.741,1.433-2.284,3.816-2.864,5.99-7.472,27.848-36.012,44.236-51.338,68.675-7.187,11.473-11.336,24.551-15.412,37.481C856.9,697.883,838.226,757.183,827.458,818.183Z"/><path class="h" d="M950.4,610.407c1.3,1.321,2.939,3,4.384,4.483q-5.668,3.148-11.1,6.668c-.766.494-1.532,1-2.285,1.507q4.26-1.038,8.509-2.161c2.815-.754,5.631-1.532,8.435-2.359.839-.247,1.667-.494,2.506-.741,14.091-4.335,27.663-9.941,39.778-18.277,13.684-9.423,22.8-36.567,19.426-58.278a45.8,45.8,0,0,0-3.322-11.621,27.141,27.141,0,0,0-2.074-3.939c-5.78,2.569-11.387,8.064-12.387,14.585-2.26,14.794,7.9,36.752-2.717,50.5-5.767,7.471-24.193,14.288-24.254,14.313a24.778,24.778,0,0,1-29.318-8c-1.779-2.4-17.129-19.4-20.118-22.118-1.79-1.631-6.224-4.273-3.371.111C926.55,581.348,945.136,605.059,950.4,610.407Z"/><path class="h" d="M916.18,641.283l-4.586-4.028c-4.973-4.552-10.367-8.832-14.545-14.2a72.95,72.95,0,0,1-7.891-13.532,5.264,5.264,0,0,1-.745-3.037q13.755,16.524,28.293,32.348c1.139,1.24,2.485,2.554,3.7,3.948a62.138,62.138,0,0,1,4.116-5.349c.519-.592,1.038-1.185,1.581-1.753a460.712,460.712,0,0,1-29.157,134.387c-.519-36.591.26-73.825,13.486-107.8a104.955,104.955,0,0,1,6.775-14.387,5.255,5.255,0,0,0-.992-6.561Z"/><path class="c" d="M971.886,643.4a2.753,2.753,0,0,1,.661,1.365,2.792,2.792,0,0,1-.575,1.665,57.616,57.616,0,0,1-23.6,21.563q-3.844-5.82-7.688-11.642A2.93,2.93,0,0,1,940,654.3a2.76,2.76,0,0,1,.631-1.161c4.636-5.934,9.412-12.015,15.39-16.26,2.087-1.481,5.578-4.351,8.142-3.393C966.851,634.493,970.07,640.967,971.886,643.4Z"/><path class="a" d="M982.3,650.3c3.077,2.588,6.206,5.234,8.345,8.639s3.167,7.754,1.71,11.5c-1.073,2.761-3.35,4.9-4.561,7.606-2.735,6.108.523,13.027,1.945,19.568,2.153,9.9-.114,20.41-4.764,29.414s-11.547,16.659-18.95,23.578c-2.568,2.4-5.326,4.794-8.7,5.776s-7.53.153-9.414-2.813c-1.277-2.01-1.3-4.542-1.251-6.922.482-24.96,3.664-50.043.4-74.793a5.834,5.834,0,0,1,2.891-7.161,129,129,0,0,0,16.192-14.122c1.331-1.372,5.309-7.4,7.047-7.6C975.172,642.74,980.7,648.96,982.3,650.3Z"/><path class="f" d="M956.493,754.75c3.375-.983,6.133-3.376,8.7-5.776,7.4-6.92,14.3-14.574,18.951-23.579s6.916-19.511,4.763-29.414c-1.422-6.54-4.679-13.459-1.944-19.568,1.211-2.7,3.487-4.844,4.561-7.606a12.761,12.761,0,0,0,.936-5.886,13.427,13.427,0,0,1,.344,10.117c-1.073,2.762-3.35,4.9-4.561,7.606-2.735,6.109.523,13.028,1.945,19.568,2.153,9.9-.114,20.411-4.764,29.414s-11.547,16.659-18.95,23.579c-2.568,2.4-5.326,4.793-8.7,5.776s-7.529.153-9.414-2.814a8.815,8.815,0,0,1-1.2-4.121C949.076,754.92,953.163,755.72,956.493,754.75Z"/><path class="g" d="M952,699.694a.562.562,0,0,0,.192-.009,56.7,56.7,0,0,1,13.879-1.2.583.583,0,0,0,.6-.561.593.593,0,0,0-.561-.6,57.842,57.842,0,0,0-14.165,1.227.583.583,0,0,0,.051,1.149Z"/><path class="g" d="M951.974,705.683a.537.537,0,0,0,.192-.008,56.7,56.7,0,0,1,13.879-1.2.584.584,0,0,0,.6-.562.592.592,0,0,0-.561-.6,57.749,57.749,0,0,0-14.165,1.227.583.583,0,0,0,.051,1.148Z"/><path class="g" d="M951.948,711.671a.567.567,0,0,0,.193-.009,56.7,56.7,0,0,1,13.879-1.2.583.583,0,0,0,.6-.561.594.594,0,0,0-.561-.6,57.842,57.842,0,0,0-14.165,1.227.583.583,0,0,0,.05,1.149Z"/><path class="f" d="M874.174,508.683c-6.591-5.105-14.606-11.453-22.286-8.209-2.969,1.254-5.178,3.768-7.606,5.886-2.953,2.576-6.443,4.759-8.308,8.206-2.731,5.046-1.21,11.273.741,16.668,19.527,53.99,73.159,88.129,101.359,138.139a126.223,126.223,0,0,1,37.986-35.579C953.8,616.879,932.3,592.448,920.708,567c0,0,30.592-24.342,30.957-42.17C951.665,524.833,896.8,526.206,874.174,508.683Z"/><path class="h" d="M957.943,545.583a.123.123,0,0,0,.121-.125.124.124,0,0,0-.089-.116c-3.522-.908-7.667.386-11.358,1.24-4.557,1.054-9.854,2.728-13.5-.2-1.755-1.41-3.348-3.892-5.414-3.708a.591.591,0,0,0-.543.6c.058,4.387,3.33,8.661,2.048,12.871a12.63,12.63,0,0,1-2.6,4.165c-1.687,2.051-5.715,4.838-5.9,6.7,2.993.036,6.523-1.535,8.964-3.335,3.168-2.335,6.189-4.861,9.288-7.286C943.416,552.894,951.6,545.739,957.943,545.583Z"/><path class="c" d="M888.69,365.449a78.706,78.706,0,0,0,2.025,7.99,159.541,159.541,0,0,1,5.237,19.685c1.42,7.471,2.753,14.992,3.927,22.55,4.532,28.849,6.817,58.129,3.248,86.842-.643,5.113-1.458,10.188-2.483,15.252a4.88,4.88,0,0,0-.012,2.852,4.6,4.6,0,0,0,1.815,1.853,70.973,70.973,0,0,0,49.831,11.534c7.323-1.074,14.449-3.3,21.747-4.544,12.72-2.161,25.712-1.334,38.592-.21l4.113.37q.741-17.894,1.494-35.776c.383-9.151.778-18.4,3.3-27.206,1.544-5.434,3.891-10.633,5.323-16.1a75.862,75.862,0,0,0,1.951-11.547c.2-1.9.371-3.8.531-5.7q1.818-21.3,3.643-42.582c1.272-14.769,3.749-69.4-5.9-71.342-11.016-2.223-28.028-2.816-38.253-7.719-7.039-3.384-13.486-4-22.619-3.256-21.256,1.736-36.881,8.122-54.751,15.519-.1.037-.185.074-.272.111C894.667,330.722,885.01,348.011,888.69,365.449Z"/><path class="e" d="M996.955,483.342a18.723,18.723,0,0,0,.9,5.99c3.606,13.77,7.361,27.848,14.758,39.926l4.112.37q.741-17.894,1.494-35.776c.383-9.151.778-18.4,3.3-27.206,1.543-5.434,3.89-10.633,5.322-16.1A75.726,75.726,0,0,0,1028.792,439c-.407-3.2-.863-6.4-1.333-9.583-.765-5.039-5.348-53.053-10.621-52.979-11.115.173-9.361,59.092-9.361,66.848,0,9.607-.024,19.722-4.767,28.07C1000.5,475.253,997.226,478.86,996.955,483.342Z"/><path class="e" d="M899.879,415.674c4.532,28.849,6.817,58.129,3.248,86.842l.018.083a2.654,2.654,0,0,0,4.806.9c3.152-4.879,4.51-11.34,8.809-15.386,2.088-1.952,4.743-3.211,6.929-5.064s3.951-4.68,3.284-7.459c-.432-1.778-1.741-3.161-2.877-4.594-4-5.063-6-11.386-7.78-17.586a444.283,444.283,0,0,1-13.486-64.551C899.385,397.409,899.125,406.449,899.879,415.674Z"/><path class="i" d="M978.836,514.628,887.32,483.676c-5.33-1.8-12.933-1.824-16.983-.057l-84.9,37.064c-4.05,1.767-3.012,4.659,2.318,6.458l91.52,30.942c5.329,1.8,12.933,1.826,16.982.058l84.9-37.059C985.2,519.319,984.164,516.427,978.836,514.628Z"/><path class="j" d="M938.671,506.215l-29.527-9.986a8.9,8.9,0,0,0-5.479-.018l-27.39,11.956c-1.307.57-.972,1.5.748,2.084l29.526,9.986a8.9,8.9,0,0,0,5.479.018L939.419,508.3C940.725,507.729,940.39,506.8,938.671,506.215Z"/><path class="c" d="M835.7,473.341c-2.622-4.977-8.114-10.235-12.266-11.745l-127.263-46.27c-4.152-1.51-5.393,1.3-2.771,6.277l44.985,85.5c2.622,4.977,8.114,10.236,12.266,11.745L877.91,565.119c4.152,1.51,5.393-1.3,2.771-6.278Z"/><path class="k" d="M896.567,267.895c-4.544-4.115-1.491-10.9-2.461-14.7-.95-3.724-8.6,4.281-7.086.81,3.64-8.32,12.35-26.119,24.112-32.112,7.32-3.731,32.3-20.5,43.849-3.1,8.356-1.648,15.29,2.282,19.63,20.615,5.42,22.894-2.125,32.947-3.212,52.237l-61-27.059Z"/><path class="l" d="M950.125,280.513c7.732-4.611,10.75-6.224,10.75-6.225.816-2.844.406-9.243,5.936-10.987,10.847-3.421,10.577,21.675,5.181,21.627-6.944-.062-3.094,20.355,11.954,29.807,3.316,2.084-2.07,13.336-7.856,16.607-10.5,5.935-25.433,8.3-32.683,6.357-19.473-5.228,3.19-33.211-9.346-43.784C929.436,290.018,940.076,280.333,950.125,280.513Z"/><path class="d" d="M947.465,269.623c7.722,11.945,21.421,13.433,14.945,24.815-9.516,16.726-13.273,17.327-22.219,19.336-8.748,1.965-22.459-14.125-24.386-18.506-3.843-8.739-3.595-13.8-5.188-17.766-1.792-4.463-3.948-4.484-4.827-13.731a36.371,36.371,0,0,0,15.269-7.954c4.323-3.806,9.513-3.629,15.3-.325C942.273,258.868,941.946,261.083,947.465,269.623Z"/><path class="c" d="M1021.663,321.013c-12.209,9.765,3.2,103.273,3.639,107.161s1.569,6.789-1.215,9.957-4.825,6.254-4.951,9.547-8.2,2.437-8.546,7.977S973.9,492.585,967.173,501.9s6.49,17,11.257,14.394,4.808-3.432,14.26-10.857,55.936-41.172,60.835-50.914,2.116-65.423-.409-83.469C1050.53,352.567,1035.536,309.915,1021.663,321.013Z"/><path class="d" d="M958.212,509.668c-4.127,1.414-5.979,3.272-12.349,1.409s-10.97,2.25-4.041,4.277,9.127,5.8,2.94,6.744-17.026,6.362-15.341,10.555c1.289,3.209,2.7,3.435,7.354,4.8s21.233-2.47,23.7-5.273,10.213-8.794,13.528-12.566,1.878-9.945-5-14.627C969,504.983,962.336,508.254,958.212,509.668Z"/><path class="e" d="M1023.412,439.394c-2.784,3.169-4.826,6.254-4.952,9.547s-8.2,2.438-8.546,7.978c-.343,5.483-35.948,36.289-43.2,45.949,8.633-1.575,20.407-9.343,31.535-23.731,14.1-18.24,22.314-18.019,26.88-25.11a68.686,68.686,0,0,0,6.967-14.815l-7.465-66.44a506.44,506.44,0,0,0-.008,56.665C1025.068,433.326,1026.2,436.226,1023.412,439.394Z"/><path class="d" d="M939.214,512.783c-.046,4.383,19.716,4.552,21.2,5.954s-4.666-7.221-4.666-7.221C944.889,510.968,939.26,508.4,939.214,512.783Z"/><path class="c" d="M645.939,775.364l.957-6.252-4.888-.748a18.761,18.761,0,0,0-.436-3.512l4.658-1.815-2.3-5.889L639.176,759a18.99,18.99,0,0,0-2.09-2.756l3.225-4.026-4.935-3.953-3.281,4.1a18.266,18.266,0,0,0-3.116-1.321l.8-5.23-6.252-.957-.812,5.3a19.07,19.07,0,0,0-3.3.385l-1.955-5.023-5.9,2.3,1.974,5.059a19,19,0,0,0-2.66,1.955l-4.24-3.391-3.951,4.931,4.206,3.373a18.561,18.561,0,0,0-1.358,3.036l-5.308-.812-.958,6.252,5.231.8a19.279,19.279,0,0,0,.328,3.367l-4.886,1.907,2.293,5.894,4.809-1.877a18.713,18.713,0,0,0,2,2.816l-3.192,3.985,4.935,3.956,3.122-3.9a19.084,19.084,0,0,0,3.221,1.466l-.747,4.889,6.252.957.737-4.813a18.307,18.307,0,0,0,3.579-.369l1.756,4.513,5.892-2.3-1.748-4.5a18.574,18.574,0,0,0,2.912-2.141l3.762,3.023,3.959-4.94-3.778-3.028a18.552,18.552,0,0,0,1.419-3.3ZM621.374,781.2a12.438,12.438,0,1,1,14.18-10.412A12.434,12.434,0,0,1,621.374,781.2Z"/><rect class="m" width="61.713" height="79.999" transform="translate(475.586 681.824)"/><rect class="k" width="42.87" height="2.286" transform="translate(485.007 687.404)"/><rect class="k" width="21.147" height="2.287" transform="translate(495.868 692.549)"/><rect class="n" width="21.268" height="1.525" transform="translate(482.586 737.022)"/><rect class="n" width="23.928" height="1.525" transform="translate(506.514 737.022)"/><rect class="n" width="21.268" height="1.523" transform="translate(482.586 740.834)"/><rect class="n" width="23.928" height="1.523" transform="translate(506.514 740.834)"/><rect class="n" width="21.268" height="1.525" transform="translate(482.586 744.641)"/><rect class="n" width="23.928" height="1.525" transform="translate(506.514 744.641)"/><rect class="n" width="21.268" height="1.525" transform="translate(482.586 748.451)"/><rect class="n" width="23.928" height="1.525" transform="translate(506.514 748.451)"/><rect class="n" width="21.268" height="1.522" transform="translate(482.586 752.261)"/><rect class="n" width="23.928" height="1.522" transform="translate(506.514 752.261)"/><rect class="c" width="61.713" height="5.346" transform="translate(475.576 676.823)"/><path class="o" d="M479.792,679.5a1.015,1.015,0,1,1-1.013-1.012A1.014,1.014,0,0,1,479.792,679.5Z"/><path class="p" d="M482.78,679.5a1.015,1.015,0,1,1-1.017-1.012A1.016,1.016,0,0,1,482.78,679.5Z"/><path class="p" d="M485.765,679.5a1.015,1.015,0,1,1-1.014-1.012A1.015,1.015,0,0,1,485.765,679.5Z"/><rect class="n" width="25.458" height="1.525" transform="translate(494.596 700.726)"/><rect class="n" width="25.458" height="1.525" transform="translate(494.596 704.534)"/><path class="q" d="M491.482,703.393a4.38,4.38,0,1,1-4.381-4.382A4.381,4.381,0,0,1,491.482,703.393Z"/><path class="c" d="M489.524,702.222l-.511-.495a.18.18,0,0,0-.252.005l-2.154,2.259-1-.932a.18.18,0,0,0-.253.008l-.484.521a.178.178,0,0,0,.008.252l1.624,1.52a.184.184,0,0,0,.105.048.2.2,0,0,0,.17-.049l2.751-2.885A.178.178,0,0,0,489.524,702.222Z"/><rect class="n" width="25.458" height="1.523" transform="translate(494.596 712.059)"/><rect class="n" width="25.458" height="1.522" transform="translate(494.596 715.869)"/><path class="q" d="M491.482,714.725a4.38,4.38,0,1,1-4.381-4.382A4.38,4.38,0,0,1,491.482,714.725Z"/><path class="c" d="M489.524,713.556l-.511-.494a.176.176,0,0,0-.252,0l-2.154,2.258-1-.931a.178.178,0,0,0-.253.008l-.484.521a.177.177,0,0,0,.008.251L486.5,716.7a.168.168,0,0,0,.105.045.177.177,0,0,0,.17-.05l2.751-2.882A.177.177,0,0,0,489.524,713.556Z"/><rect class="n" width="25.458" height="1.522" transform="translate(494.596 723.393)"/><rect class="n" width="25.458" height="1.525" transform="translate(494.596 727.201)"/><path class="q" d="M491.482,726.058a4.38,4.38,0,1,1-4.381-4.38A4.38,4.38,0,0,1,491.482,726.058Z"/><path class="c" d="M489.524,724.887l-.511-.493a.179.179,0,0,0-.252.005l-2.154,2.259-1-.931a.178.178,0,0,0-.253.006l-.484.52a.178.178,0,0,0,.008.252l1.624,1.523a.167.167,0,0,0,.105.044.176.176,0,0,0,.17-.048l2.751-2.886A.176.176,0,0,0,489.524,724.887Z"/><path class="r" d="M532.362,706.643A11.243,11.243,0,1,1,521.119,695.4,11.245,11.245,0,0,1,532.362,706.643Z"/><path class="c" d="M530.617,697.247a13.451,13.451,0,1,0-1.428,20.192l7.761,7.837,2.159-2.144-7.723-7.787A13.466,13.466,0,0,0,530.617,697.247ZM513.369,714.36a10.848,10.848,0,1,1,15.336.06A10.866,10.866,0,0,1,513.369,714.36Z"/><path class="k" d="M555.338,735.653a2.617,2.617,0,0,1-.016,3.687l-1.85,1.831a2.6,2.6,0,0,1-3.684-.019l-16.8-16.941a2.6,2.6,0,0,1,.013-3.682l1.85-1.832a2.6,2.6,0,0,1,3.682.014Z"/><path class="s" d="M514.133,710.832a1.182,1.182,0,0,1-1.541-.645,9.263,9.263,0,0,1,2.608-10.456,1.178,1.178,0,0,1,1.552,1.773,6.909,6.909,0,0,0-1.979,7.79A1.18,1.18,0,0,1,514.133,710.832Z"/><path class="c" d="M553.7,734.005a6.718,6.718,0,0,1-1.318,1.815l-3.109,3.087a6.945,6.945,0,0,1-.941.78l1.455,1.465a2.6,2.6,0,0,0,3.684.019l1.85-1.831a2.617,2.617,0,0,0,.016-3.687Z"/><path class="t" d="M554.362,740.289,533.737,719.8l-.735.729a2.6,2.6,0,0,0-.013,3.682l16.8,16.941a2.6,2.6,0,0,0,3.684.019Z"/><rect class="m" width="70.751" height="91.72" transform="translate(567.089 339.792)"/><rect class="q" width="32.756" height="1.748" transform="translate(586.088 347.61)"/><rect class="q" width="16.159" height="1.748" transform="translate(594.387 351.539)"/><rect class="q" width="17.471" height="17.472" transform="translate(574.95 359.401)"/><path class="a" d="M583.461,368.16l-8.511,8.51v.2h.2l8.511-8.512,8.468,8.512h.29v-.115l-8.56-8.6,8.56-8.556v-.2h-.2l-8.557,8.555-8.511-8.555h-.2v.2Z"/><rect class="n" width="7.422" height="1.748" transform="translate(598.1 359.401)"/><rect class="n" width="4.367" height="1.748" transform="translate(607.268 359.401)"/><rect class="n" width="13.975" height="1.745" transform="translate(598.1 363.77)"/><rect class="n" width="15.723" height="1.745" transform="translate(613.821 363.77)"/><rect class="n" width="9.167" height="1.747" transform="translate(598.1 368.136)"/><rect class="n" width="14.414" height="1.747" transform="translate(609.016 368.136)"/><rect class="n" width="4.367" height="1.747" transform="translate(625.177 368.136)"/><rect class="q" width="11.792" height="1.748" transform="translate(613.385 359.401)"/><rect class="q" width="2.622" height="1.748" transform="translate(626.923 359.401)"/><rect class="n" width="12.956" height="1.747" transform="translate(575.114 385.316)"/><rect class="n" width="7.621" height="1.747" transform="translate(591.117 385.316)"/><rect class="n" width="24.388" height="1.747" transform="translate(575.114 389.685)"/><rect class="n" width="27.432" height="1.747" transform="translate(602.548 389.685)"/><rect class="n" width="24.388" height="1.746" transform="translate(575.114 403.078)"/><rect class="q" width="27.432" height="1.746" transform="translate(602.548 403.078)"/><rect class="n" width="24.388" height="1.748" transform="translate(575.114 407.444)"/><rect class="n" width="27.432" height="1.748" transform="translate(602.548 407.444)"/><rect class="n" width="24.388" height="1.746" transform="translate(575.114 411.813)"/><rect class="n" width="27.432" height="1.746" transform="translate(602.548 411.813)"/><rect class="n" width="24.388" height="1.746" transform="translate(575.114 416.181)"/><rect class="n" width="27.432" height="1.746" transform="translate(602.548 416.181)"/><rect class="n" width="24.388" height="1.748" transform="translate(575.114 420.548)"/><rect class="n" width="27.432" height="1.748" transform="translate(602.548 420.548)"/><rect class="n" width="16.003" height="1.747" transform="translate(575.114 394.051)"/><rect class="n" width="20.575" height="1.747" transform="translate(601.787 385.316)"/><rect class="n" width="4.572" height="1.747" transform="translate(625.409 385.316)"/><rect class="n" width="7.422" height="1.747" transform="translate(598.1 372.505)"/><rect class="n" width="4.367" height="1.747" transform="translate(607.268 372.505)"/><rect class="n" width="13.975" height="1.745" transform="translate(598.1 376.873)"/><rect class="n" width="11.792" height="1.747" transform="translate(613.385 372.505)"/><rect class="n" width="2.622" height="1.747" transform="translate(626.923 372.505)"/><rect class="c" width="70.757" height="6.129" transform="translate(567.076 334.056)"/><path class="o" d="M571.908,337.127a1.162,1.162,0,1,1-1.162-1.163A1.164,1.164,0,0,1,571.908,337.127Z"/><path class="p" d="M575.334,337.127a1.162,1.162,0,1,1-1.162-1.163A1.164,1.164,0,0,1,575.334,337.127Z"/><path class="p" d="M578.757,337.127a1.163,1.163,0,1,1-1.161-1.163A1.162,1.162,0,0,1,578.757,337.127Z"/><path class="m" d="M779.214,719.035a8.49,8.49,0,0,1-8.489,8.49H673.512a8.489,8.489,0,0,1-8.484-8.49V646.512a8.484,8.484,0,0,1,8.484-8.486h97.213a8.485,8.485,0,0,1,8.489,8.486Z"/><rect class="c" width="101.843" height="66.354" transform="translate(671.199 654.999)"/><path class="u" d="M760.7,646.9a1.928,1.928,0,1,1-1.934-1.931A1.932,1.932,0,0,1,760.7,646.9Z"/><path class="u" d="M766.484,646.9a1.927,1.927,0,1,1-1.928-1.931A1.927,1.927,0,0,1,766.484,646.9Z"/><path class="u" d="M772.271,646.9a1.93,1.93,0,1,1-1.931-1.931A1.929,1.929,0,0,1,772.271,646.9Z"/><path class="a" d="M800.945,647.38a29.063,29.063,0,1,1-29.064-29.062A29.063,29.063,0,0,1,800.945,647.38Z"/><path class="c" d="M771.7,677.617a30.027,30.027,0,1,1,30.027-30.027A30.063,30.063,0,0,1,771.7,677.617Zm0-57.909a27.883,27.883,0,1,0,27.884,27.882A27.913,27.913,0,0,0,771.7,619.708Z"/><path class="v" d="M752.218,642.072l-3.961-1.062-.151.562,3.959,1.059C752.11,642.443,752.164,642.258,752.218,642.072Z"/><path class="v" d="M761.826,629.914l-2.052-3.552-.5.292,2.049,3.551C761.487,630.1,761.657,630.009,761.826,629.914Z"/><path class="v" d="M766.737,627.958,765.677,624l-.562.151,1.062,3.961C766.363,628.059,766.548,628.005,766.737,627.958Z"/><path class="v" d="M757.591,633.074l-2.905-2.9-.408.408,2.9,2.905Q757.382,633.276,757.591,633.074Z"/><path class="v" d="M771.7,627.344c.2,0,.39.009.581.016v-4.112h-1.159v4.112C771.311,627.353,771.5,627.344,771.7,627.344Z"/><path class="v" d="M777.213,628.113l1.063-3.961-.56-.151-1.059,3.957C776.842,628.005,777.028,628.059,777.213,628.113Z"/><path class="v" d="M789.516,637.971l3.553-2.049-.581-1.006-3.555,2.052C789.134,637.3,789.331,637.632,789.516,637.971Z"/><path class="v" d="M791.326,642.631l3.961-1.062-.153-.559-3.961,1.059C791.227,642.258,791.283,642.442,791.326,642.631Z"/><path class="v" d="M786.211,633.483l2.905-2.9-.412-.408-2.9,2.9C785.942,633.209,786.077,633.346,786.211,633.483Z"/><path class="v" d="M751.449,647.59c0-.1.008-.192.008-.289h-4.1v.579h4.1C751.457,647.784,751.449,647.688,751.449,647.59Z"/><path class="v" d="M782.07,630.2l2.049-3.55-.5-.29-2.049,3.552C781.737,630.009,781.9,630.1,782.07,630.2Z"/><path class="v" d="M754.458,636.968l-3.555-2.052-.581,1.006,3.552,2.052C754.06,637.632,754.256,637.3,754.458,636.968Z"/><path class="v" d="M752.065,652.552l-3.959,1.059.151.562,3.961-1.062C752.164,652.925,752.11,652.74,752.065,652.552Z"/><path class="v" d="M785.8,662.107l2.9,2.9.409-.411-2.9-2.9C786.08,661.834,785.942,661.972,785.8,662.107Z"/><path class="v" d="M791.936,647.3c0,.1.006.193.006.29s-.006.194-.006.29h4.1v-.58Z"/><path class="v" d="M791.175,653.11l3.961,1.06.151-.56-3.958-1.06C791.283,652.739,791.227,652.924,791.175,653.11Z"/><path class="v" d="M788.933,658.211l3.555,2.054.581-1.005-3.553-2.052C789.333,657.549,789.134,657.883,788.933,658.211Z"/><path class="v" d="M757.179,661.7l-2.9,2.9.408.411,2.905-2.9C757.451,661.972,757.314,661.837,757.179,661.7Z"/><path class="v" d="M753.874,657.209l-3.552,2.051.581,1.007,3.555-2.053C754.256,657.884,754.06,657.549,753.874,657.209Z"/><path class="k" d="M772.6,644.748l-1.041-13.859-1.056,13.991a3.294,3.294,0,1,0,2.1-.132Z"/><path class="c" d="M757.139,662.573a20.892,20.892,0,1,1,29.115,0l-.9-.922a19.6,19.6,0,1,0-27.322,0Z"/><path class="q" d="M738.339,697.347a21.48,21.48,0,1,1-34.631-22.829L717.942,690.6Z"/><path class="w" d="M747.27,678.171a28.086,28.086,0,0,1,1.885,16.791l-27.494-5.413Z"/><path class="k" d="M703.587,669.345a23.87,23.87,0,0,1,36.29,8.514l-21.548,10.259Z"/><rect class="k" width="108.313" height="73.158" transform="translate(447.597 484.871)"/><path class="x" d="M466.254,498.868h.3v2.116H467.6v.257h-1.342Z"/><path class="x" d="M468.629,499.441a.928.928,0,1,1-.815.925A.841.841,0,0,1,468.629,499.441Zm0,1.6c.3,0,.506-.271.506-.672s-.2-.68-.506-.68-.508.274-.508.68S468.328,501.038,468.629,501.038Z"/><path class="x" d="M469.909,499.484h.245l.024.316h.011a.6.6,0,0,1,.5-.359.512.512,0,0,1,.188.033l-.062.261a.494.494,0,0,0-.167-.028c-.15,0-.328.109-.446.4v1.131h-.3Z"/><path class="x" d="M471.786,499.441c.449,0,.7.321.7.823a.711.711,0,0,1-.014.164h-1.185a.586.586,0,0,0,.586.617.8.8,0,0,0,.441-.137l.1.2a1.056,1.056,0,0,1-.581.179.929.929,0,0,1-.054-1.843Zm.441.791c0-.358-.159-.557-.43-.557a.544.544,0,0,0-.508.557Z"/><path class="x" d="M472.924,499.484h.247l.027.251h.011a.764.764,0,0,1,.543-.294.466.466,0,0,1,.489.336.81.81,0,0,1,.576-.336c.363,0,.538.236.538.686v1.114h-.3v-1.074c0-.33-.108-.471-.328-.471a.653.653,0,0,0-.444.271v1.274h-.3v-1.074c0-.33-.107-.471-.331-.471a.671.671,0,0,0-.441.271v1.274h-.295Z"/><path class="x" d="M476.6,498.929a.2.2,0,0,1,.21-.193.193.193,0,1,1,0,.385A.2.2,0,0,1,476.6,498.929Zm.059.555h.3v1.757h-.3Z"/><path class="x" d="M477.847,501.39v.593h-.3v-2.5h.247l.024.2h.011a.893.893,0,0,1,.56-.245c.454,0,.7.348.7.894,0,.6-.36.949-.761.949a.808.808,0,0,1-.487-.2Zm.431-.356c.287,0,.5-.262.5-.7,0-.386-.129-.647-.463-.647a.741.741,0,0,0-.468.24v.923A.691.691,0,0,0,478.278,501.034Z"/><path class="x" d="M479.512,500.842a.769.769,0,0,0,.516.212c.234,0,.35-.123.35-.277,0-.178-.213-.258-.4-.332-.25-.09-.524-.208-.524-.507,0-.279.226-.5.608-.5a.877.877,0,0,1,.543.2l-.14.188a.651.651,0,0,0-.4-.156c-.221,0-.323.118-.323.254,0,.167.194.227.39.3.256.1.538.2.538.533,0,.285-.226.524-.645.524a1.062,1.062,0,0,1-.654-.24Z"/><path class="x" d="M481.05,499.484h.3v1.074c0,.33.094.469.325.469.181,0,.31-.09.474-.3v-1.246h.3v1.757H482.2l-.024-.273h-.011a.743.743,0,0,1-.578.316c-.377,0-.541-.239-.541-.685Z"/><path class="x" d="M483.045,499.484h.243l.029.251h.011a.77.77,0,0,1,.548-.294.453.453,0,0,1,.482.336.832.832,0,0,1,.581-.336c.363,0,.537.236.537.686v1.114h-.3v-1.074c0-.33-.105-.471-.325-.471a.657.657,0,0,0-.444.271v1.274h-.293v-1.074c0-.33-.105-.471-.331-.471a.67.67,0,0,0-.444.271v1.274h-.3Z"/><path class="x" d="M463.729,500.359a2.037,2.037,0,1,1-2.035-2.037A2.038,2.038,0,0,1,463.729,500.359Z"/><rect class="x" width="19.241" height="2.263" transform="translate(502.961 499.228)"/><rect class="x" width="13.354" height="2.263" transform="translate(527.631 499.228)"/><path class="x" d="M460.4,534.408l-.694-.861,8.533-6.89,8.089,5.6,8.178-11.949,8.207,4.421,8.506-12.425,8.18,19.508,7.938-13.124,8.164,5.026,8.215-16.745,8.412,5.385-.594.93-7.371-4.718-8.2,16.725-8.253-5.08-8.484,14.032L500.985,514.6l-7.919,11.57-8.207-4.421L476.613,533.8l-8.323-5.764Z"/><path class="y" d="M461.315,533.979a1.42,1.42,0,1,1-1.42-1.423A1.417,1.417,0,0,1,461.315,533.979Z"/><path class="y" d="M469.683,527.346a1.421,1.421,0,1,1-1.42-1.42A1.421,1.421,0,0,1,469.683,527.346Z"/><path class="y" d="M477.893,533.031a1.421,1.421,0,1,1-1.422-1.421A1.421,1.421,0,0,1,477.893,533.031Z"/><path class="y" d="M486.1,521.032a1.42,1.42,0,1,1-1.42-1.42A1.418,1.418,0,0,1,486.1,521.032Z"/><path class="y" d="M494.313,525.137a1.421,1.421,0,1,1-1.423-1.421A1.423,1.423,0,0,1,494.313,525.137Z"/><path class="y" d="M502.523,513.455a1.422,1.422,0,1,1-1.423-1.422A1.419,1.419,0,0,1,502.523,513.455Z"/><path class="y" d="M510.574,533.663a1.423,1.423,0,1,1-1.42-1.421A1.423,1.423,0,0,1,510.574,533.663Z"/><path class="y" d="M518.943,519.452a1.422,1.422,0,1,1-1.423-1.42A1.422,1.422,0,0,1,518.943,519.452Z"/><path class="y" d="M527.15,524.505a1.421,1.421,0,1,1-1.42-1.42A1.42,1.42,0,0,1,527.15,524.505Z"/><path class="y" d="M535.36,507.77a1.421,1.421,0,1,1-1.423-1.419A1.421,1.421,0,0,1,535.36,507.77Z"/><path class="y" d="M543.253,512.822a1.422,1.422,0,1,1-1.42-1.421A1.418,1.418,0,0,1,543.253,512.822Z"/><rect class="a" width="2.211" height="6.316" transform="translate(459.104 539.03)"/><rect class="a" width="2.211" height="11.21" transform="translate(463.684 534.136)"/><rect class="a" width="2.211" height="13.262" transform="translate(468.263 532.084)"/><rect class="a" width="2.211" height="8.526" transform="translate(472.84 536.82)"/><rect class="a" width="2.211" height="8.683" transform="translate(477.417 536.663)"/><rect class="a" width="2.211" height="15.945" transform="translate(481.997 529.401)"/><rect class="a" width="2.21" height="19.261" transform="translate(486.576 526.085)"/><rect class="a" width="2.213" height="16.103" transform="translate(491.153 529.243)"/><rect class="a" width="2.208" height="19.42" transform="translate(495.733 525.926)"/><rect class="a" width="2.213" height="23.997" transform="translate(500.31 521.349)"/><rect class="a" width="2.211" height="8.896" transform="translate(504.889 536.45)"/><rect class="a" width="2.208" height="7.737" transform="translate(509.469 537.609)"/><rect class="a" width="2.211" height="15.631" transform="translate(514.046 529.715)"/><rect class="a" width="2.211" height="20.841" transform="translate(518.625 524.505)"/><rect class="a" width="2.211" height="16.42" transform="translate(523.202 528.926)"/><rect class="a" width="2.211" height="17.682" transform="translate(527.782 527.663)"/><rect class="a" width="2.211" height="29.524" transform="translate(532.359 515.822)"/><rect class="a" width="2.211" height="30.944" transform="translate(536.939 514.402)"/><rect class="a" width="2.211" height="27.471" transform="translate(541.516 517.875)"/><rect class="k" width="89.188" height="14.862" transform="translate(723.951 213.487)"/><rect class="m" width="89.188" height="53.682" transform="translate(723.951 227.73)"/><rect class="z" width="4.128" height="4.128" transform="translate(732.209 233.306)"/><rect class="z" width="4.131" height="4.128" transform="translate(743.359 233.306)"/><rect class="z" width="4.131" height="4.128" transform="translate(754.508 233.306)"/><rect class="z" width="4.133" height="4.128" transform="translate(765.654 233.306)"/><rect class="z" width="4.129" height="4.128" transform="translate(776.805 233.306)"/><rect class="z" width="4.131" height="4.128" transform="translate(787.954 233.306)"/><rect class="z" width="4.129" height="4.128" transform="translate(799.105 233.306)"/><rect class="z" width="4.128" height="4.128" transform="translate(732.209 242.39)"/><rect class="z" width="4.131" height="4.128" transform="translate(743.359 242.39)"/><rect class="z" width="4.131" height="4.128" transform="translate(754.508 242.39)"/><rect class="z" width="4.133" height="4.128" transform="translate(765.654 242.39)"/><rect class="z" width="4.129" height="4.128" transform="translate(776.805 242.39)"/><rect class="z" width="4.129" height="4.128" transform="translate(799.105 242.39)"/><rect class="z" width="4.128" height="4.127" transform="translate(732.209 251.475)"/><rect class="z" width="4.131" height="4.127" transform="translate(743.359 251.475)"/><rect class="z" width="4.133" height="4.127" transform="translate(765.654 251.475)"/><rect class="z" width="4.129" height="4.127" transform="translate(776.805 251.475)"/><rect class="z" width="4.131" height="4.127" transform="translate(787.954 251.475)"/><rect class="z" width="4.129" height="4.127" transform="translate(799.105 251.475)"/><rect class="z" width="4.128" height="4.129" transform="translate(732.209 260.556)"/><rect class="z" width="4.131" height="4.129" transform="translate(743.359 260.556)"/><rect class="z" width="4.131" height="4.129" transform="translate(754.508 260.556)"/><rect class="z" width="4.133" height="4.129" transform="translate(765.654 260.556)"/><rect class="z" width="4.131" height="4.129" transform="translate(787.954 260.556)"/><rect class="z" width="4.129" height="4.129" transform="translate(799.105 260.556)"/><rect class="z" width="4.128" height="4.125" transform="translate(732.209 269.645)"/><rect class="z" width="4.131" height="4.125" transform="translate(743.359 269.645)"/><path class="aa" d="M760.972,250.335l-.809-.779a.283.283,0,0,0-.394,0l-3.4,3.568-1.568-1.472a.286.286,0,0,0-.4.012l-.767.823a.279.279,0,0,0,.015.4l2.561,2.4a.256.256,0,0,0,.166.073.279.279,0,0,0,.265-.078l4.343-4.549A.275.275,0,0,0,760.972,250.335Z"/><path class="aa" d="M782.857,259.416l-.81-.776a.282.282,0,0,0-.4,0l-3.4,3.564-1.569-1.469a.284.284,0,0,0-.4.009l-.764.827a.277.277,0,0,0,.008.393l2.568,2.4a.292.292,0,0,0,.166.069.284.284,0,0,0,.264-.078l4.338-4.552A.281.281,0,0,0,782.857,259.416Z"/><path class="aa" d="M794.831,241.455l-.81-.776a.285.285,0,0,0-.4,0l-3.4,3.568-1.57-1.472a.279.279,0,0,0-.4.012l-.771.823a.28.28,0,0,0,.014.394l2.567,2.4a.264.264,0,0,0,.165.072.286.286,0,0,0,.268-.078l4.337-4.549A.279.279,0,0,0,794.831,241.455Z"/><path class="ab" d="M854.671,266.442l-3.9-8.682,8.682-3.9"/></g></g></svg>