<svg width="260" height="247" viewBox="0 0 260 247" fill="none" xmlns="http://www.w3.org/2000/svg">
<ellipse cx="124" cy="123.5" rx="124" ry="123.5" fill="#F5F5F5"/>
<path opacity="0.03" d="M168.411 168.38L117.411 67.3799C116.495 65.5828 114.905 64.2209 112.989 63.5915C111.072 62.962 108.985 63.116 107.181 64.0199L26.1814 104.95C24.3806 105.862 23.0147 107.451 22.3831 109.369C21.7514 111.286 21.9055 113.376 22.8114 115.18L73.8114 216.18C74.7256 217.976 76.3135 219.338 78.2284 219.968C80.1433 220.597 82.2295 220.443 84.0313 219.54L165.031 178.61C166.832 177.697 168.198 176.109 168.832 174.192C169.465 172.275 169.314 170.186 168.411 168.38Z" fill="#232323"/>
<path d="M167.27 171.35L86.2698 212.28C84.4665 213.184 82.3788 213.338 80.4623 212.709C78.5458 212.079 76.956 210.717 76.0398 208.92L25.0398 107.92C24.1364 106.118 23.9826 104.032 24.6122 102.117C25.2417 100.202 26.6034 98.6144 28.3998 97.7002L109.4 56.7602C111.203 55.8563 113.291 55.7022 115.207 56.3317C117.124 56.9612 118.714 58.323 119.63 60.1202L170.63 161.12C171.536 162.923 171.692 165.012 171.062 166.929C170.432 168.846 169.069 170.436 167.27 171.35Z" fill="#DCE0E2"/>
<path d="M68.6793 94.5704L41.1692 108.47C40.4953 108.808 39.715 108.865 38.999 108.629C38.2831 108.393 37.6899 107.883 37.3492 107.21C37.0113 106.536 36.9541 105.756 37.1903 105.04C37.4265 104.324 37.9367 103.731 38.6092 103.39L66.1193 89.4704C66.4521 89.3014 66.815 89.1996 67.1872 89.171C67.5594 89.1423 67.9336 89.1873 68.2884 89.3034C68.6432 89.4195 68.9716 89.6044 69.2549 89.8476C69.5381 90.0907 69.7707 90.3873 69.9393 90.7204C70.1113 91.0555 70.2151 91.4215 70.2448 91.797C70.2745 92.1725 70.2295 92.5502 70.1124 92.9082C69.9952 93.2663 69.8082 93.5975 69.5622 93.8828C69.3162 94.1681 69.0161 94.4018 68.6793 94.5704Z" fill="#194555"/>
<path d="M116.91 86.2602L55.9896 117.03C55.3156 117.368 54.5353 117.425 53.8193 117.189C53.1034 116.953 52.5102 116.443 52.1695 115.77C51.8316 115.096 51.7745 114.316 52.0106 113.6C52.2468 112.884 52.757 112.291 53.4296 111.95L114.35 81.1802C115.028 80.8471 115.81 80.7959 116.526 81.0375C117.241 81.2792 117.832 81.7943 118.17 82.4702C118.498 83.141 118.55 83.914 118.314 84.6228C118.079 85.3316 117.574 85.9196 116.91 86.2602Z" fill="#95AFB9"/>
<path d="M122.961 98.2501L53.681 133.25C53.007 133.588 52.2267 133.645 51.5107 133.409C50.7948 133.173 50.2016 132.663 49.861 131.99C49.523 131.316 49.4659 130.536 49.702 129.82C49.9382 129.104 50.4484 128.511 51.121 128.17L120.401 93.1701C121.075 92.8348 121.855 92.7791 122.57 93.015C123.285 93.2509 123.878 93.7594 124.221 94.4301C124.556 95.1044 124.612 95.8838 124.376 96.599C124.14 97.3142 123.632 97.9075 122.961 98.2501Z" fill="#95AFB9"/>
<path d="M129.022 110.23L59.7416 145.23C59.0677 145.568 58.2873 145.625 57.5714 145.389C56.8554 145.153 56.2622 144.643 55.9216 143.97C55.5829 143.297 55.5243 142.518 55.7585 141.802C55.9927 141.086 56.5008 140.492 57.1716 140.15L126.452 105.15C127.124 104.811 127.904 104.753 128.619 104.987C129.335 105.221 129.929 105.729 130.272 106.4C130.442 106.733 130.545 107.097 130.575 107.47C130.604 107.844 130.559 108.219 130.443 108.575C130.327 108.931 130.142 109.261 129.898 109.545C129.654 109.829 129.356 110.062 129.022 110.23Z" fill="#95AFB9"/>
<path d="M135.07 122.22L65.7903 157.22C65.1176 157.559 64.3383 157.617 63.6225 157.383C62.9067 157.149 62.3127 156.641 61.9703 155.97C61.6324 155.296 61.5752 154.516 61.8114 153.8C62.0475 153.084 62.5578 152.491 63.2303 152.15L132.51 117.15C133.184 116.812 133.965 116.755 134.681 116.991C135.396 117.227 135.99 117.737 136.33 118.41C136.665 119.083 136.721 119.861 136.485 120.574C136.249 121.288 135.74 121.879 135.07 122.22Z" fill="#95AFB9"/>
<path d="M141.131 134.2L71.8411 169.2C71.1667 169.535 70.3873 169.591 69.6721 169.355C68.9569 169.119 68.3637 168.611 68.0211 167.94C67.6832 167.266 67.626 166.486 67.8622 165.77C68.0983 165.054 68.6085 164.461 69.2811 164.12L138.561 129.12C139.235 128.782 140.015 128.725 140.731 128.961C141.447 129.197 142.04 129.708 142.381 130.38C142.72 131.053 142.778 131.832 142.544 132.548C142.31 133.264 141.802 133.858 141.131 134.2Z" fill="#95AFB9"/>
<path d="M147.178 146.19L77.8984 181.19C77.2244 181.528 76.4441 181.585 75.7281 181.349C75.0122 181.113 74.419 180.603 74.0783 179.93C73.7424 179.257 73.6852 178.478 73.9192 177.763C74.1531 177.048 74.6594 176.454 75.3283 176.11L144.618 141.11C145.29 140.784 146.062 140.733 146.77 140.969C147.478 141.204 148.066 141.707 148.408 142.37C148.748 143.04 148.81 143.818 148.58 144.533C148.349 145.249 147.846 145.844 147.178 146.19Z" fill="#95AFB9"/>
<path d="M153.231 158.18L83.951 193.18C83.2771 193.518 82.4968 193.575 81.7808 193.339C81.0648 193.103 80.4716 192.593 80.131 191.92C79.7957 191.246 79.7401 190.466 79.976 189.751C80.2119 189.036 80.7203 188.443 81.391 188.1L150.671 153.1C151.345 152.762 152.125 152.705 152.841 152.941C153.557 153.177 154.15 153.688 154.491 154.36C154.829 155.034 154.886 155.814 154.65 156.53C154.414 157.246 153.904 157.84 153.231 158.18Z" fill="#95AFB9"/>
<path opacity="0.03" d="M182.411 161.75L156.411 51.6304C155.943 49.6695 154.718 47.9736 153.004 46.9131C151.289 45.8526 149.225 45.5137 147.261 45.9704L58.9114 66.8304C56.9484 67.2984 55.2507 68.5249 54.1899 70.2416C53.1292 71.9584 52.7917 74.0254 53.2514 75.9904L79.2514 186.11C79.7147 188.074 80.9388 189.773 82.6546 190.835C84.3704 191.896 86.4375 192.233 88.4014 191.77L176.761 170.92C178.723 170.448 180.419 169.218 181.477 167.5C182.536 165.782 182.872 163.715 182.411 161.75Z" fill="#232323"/>
<path d="M179.753 165.18L91.4131 186.04C89.4496 186.497 87.3851 186.158 85.6707 185.097C83.9563 184.037 82.7312 182.341 82.2631 180.38L56.2631 70.2501C55.8034 68.2852 56.1409 66.2181 57.2017 64.5014C58.2625 62.7847 59.9601 61.5581 61.9231 61.0901L150.273 40.2401C152.235 39.7864 154.297 40.1268 156.009 41.1871C157.721 42.2473 158.945 43.9415 159.413 45.9001L185.413 156.02C185.87 157.985 185.531 160.051 184.471 161.767C183.411 163.483 181.715 164.71 179.753 165.18Z" fill="#E8EBED"/>
<path d="M101.842 67.4703L71.8421 74.5503C71.1119 74.7229 70.343 74.6016 69.7013 74.2125C69.0597 73.8234 68.5967 73.1977 68.4122 72.4703C68.2438 71.736 68.3721 70.9648 68.769 70.3245C69.166 69.6841 69.7995 69.2262 70.5321 69.0503L100.532 61.9703C101.265 61.7989 102.036 61.9247 102.677 62.32C103.318 62.7153 103.776 63.3482 103.952 64.0803C104.112 64.809 103.981 65.5712 103.587 66.2045C103.192 66.8378 102.566 67.292 101.842 67.4703Z" fill="#194555"/>
<path d="M150.682 70.6702L84.2621 86.3503C83.5277 86.5219 82.7552 86.3964 82.1128 86.0013C81.4704 85.6061 81.0101 84.9732 80.8321 84.2402C80.661 83.5057 80.7881 82.7333 81.1855 82.0922C81.5829 81.4512 82.2181 80.9938 82.9521 80.8203L149.412 65.1403C150.145 64.9689 150.916 65.0946 151.557 65.4899C152.198 65.8853 152.656 66.5181 152.832 67.2503C152.916 67.616 152.928 67.9948 152.865 68.365C152.803 68.7351 152.667 69.0892 152.468 69.407C152.268 69.7247 152.007 69.9999 151.701 70.2167C151.395 70.4335 151.048 70.5876 150.682 70.6702Z" fill="#95AFB9"/>
<path d="M152.964 83.6028L77.4245 101.433C77.0614 101.519 76.6849 101.533 76.3164 101.473C75.9479 101.414 75.5948 101.283 75.2772 101.087C74.9595 100.891 74.6836 100.634 74.4653 100.331C74.2469 100.029 74.0903 99.686 74.0045 99.3228C73.8331 98.5897 73.9588 97.8185 74.3542 97.1777C74.7495 96.5369 75.3824 96.0786 76.1145 95.9028L151.664 78.0728C152.397 77.9042 153.167 78.0311 153.807 78.426C154.448 78.8209 154.906 79.4521 155.084 80.1828C155.256 80.9174 155.129 81.6898 154.731 82.3309C154.334 82.9719 153.698 83.4293 152.964 83.6028Z" fill="#95AFB9"/>
<path d="M156.853 96.8099L81.3129 114.65C80.5773 114.818 79.8049 114.691 79.1629 114.294C78.5209 113.897 78.061 113.263 77.8829 112.53C77.7118 111.795 77.8389 111.023 78.2363 110.382C78.6337 109.741 79.269 109.283 80.0029 109.11L155.543 91.2799C156.276 91.1085 157.047 91.2342 157.688 91.6296C158.329 92.0249 158.787 92.6578 158.963 93.3899C159.134 94.1231 159.009 94.8943 158.613 95.5351C158.218 96.1759 157.585 96.6342 156.853 96.8099Z" fill="#95AFB9"/>
<path d="M159.933 109.88L84.4128 127.71C83.6796 127.881 82.9084 127.756 82.2676 127.36C81.6268 126.965 81.1685 126.332 80.9928 125.6C80.8214 124.867 80.9471 124.096 81.3425 123.455C81.7378 122.814 82.3706 122.356 83.1028 122.18L158.643 104.34C159.378 104.172 160.151 104.299 160.793 104.696C161.435 105.093 161.895 105.727 162.073 106.46C162.157 106.825 162.169 107.203 162.107 107.573C162.045 107.943 161.911 108.296 161.712 108.614C161.513 108.932 161.254 109.207 160.948 109.424C160.643 109.641 160.298 109.796 159.933 109.88Z" fill="#95AFB9"/>
<path d="M163.025 122.95L87.4848 140.78C86.7503 140.952 85.9779 140.826 85.3355 140.431C84.6931 140.036 84.2328 139.403 84.0548 138.67C83.8837 137.936 84.0107 137.163 84.4081 136.522C84.8055 135.881 85.4408 135.424 86.1748 135.25L161.715 117.41C162.449 117.239 163.222 117.366 163.863 117.764C164.504 118.161 164.961 118.796 165.135 119.53C165.306 120.263 165.18 121.035 164.785 121.675C164.39 122.316 163.757 122.774 163.025 122.95Z" fill="#95AFB9"/>
<path d="M166.101 136.02L90.5613 153.85C89.8281 154.021 89.0569 153.896 88.4161 153.5C87.7753 153.105 87.317 152.472 87.1412 151.74C86.9698 151.007 87.0956 150.236 87.4909 149.595C87.8862 148.954 88.5191 148.496 89.2513 148.32L164.791 130.47C165.527 130.301 166.299 130.429 166.941 130.826C167.583 131.223 168.043 131.857 168.221 132.59C168.393 133.326 168.266 134.1 167.869 134.742C167.471 135.385 166.836 135.844 166.101 136.02Z" fill="#95AFB9"/>
<path d="M169.193 149.09L93.6527 166.92C92.9183 167.092 92.1458 166.967 91.5034 166.571C90.861 166.176 90.4007 165.543 90.2227 164.81C90.0516 164.076 90.1787 163.303 90.5761 162.662C90.9735 162.021 91.6087 161.564 92.3427 161.39L167.883 143.55C168.617 143.379 169.39 143.506 170.031 143.904C170.672 144.301 171.129 144.936 171.303 145.67C171.471 146.403 171.345 147.173 170.95 147.813C170.555 148.453 169.923 148.912 169.193 149.09Z" fill="#95AFB9"/>
<path d="M218.912 180.67L124.102 162L141.042 76C141.228 75.0385 141.603 74.1233 142.144 73.3069C142.685 72.4906 143.382 71.7891 144.195 71.2428C145.008 70.6965 145.921 70.3161 146.882 70.1234C147.842 69.9307 148.831 69.9296 149.792 70.12L229.962 85.9C230.923 86.089 231.838 86.4656 232.653 87.0082C233.469 87.5507 234.17 88.2487 234.716 89.0621C235.262 89.8756 235.642 90.7886 235.836 91.7491C236.029 92.7096 236.031 93.6987 235.842 94.66L218.912 180.67Z" fill="white"/>
<path d="M217.742 107.08L152.512 94.3698C151.781 94.2179 151.141 93.784 150.729 93.1623C150.317 92.5406 150.167 91.7814 150.312 91.0498C150.373 90.6899 150.505 90.3458 150.7 90.037C150.895 89.7282 151.148 89.4607 151.446 89.2499C151.745 89.0392 152.081 88.8891 152.437 88.8085C152.793 88.7278 153.162 88.718 153.522 88.7798L218.772 101.47C219.499 101.626 220.137 102.061 220.548 102.682C220.959 103.302 221.111 104.059 220.972 104.79C220.91 105.15 220.778 105.494 220.583 105.803C220.388 106.111 220.135 106.379 219.837 106.59C219.539 106.8 219.202 106.95 218.846 107.031C218.49 107.112 218.121 107.121 217.762 107.06L217.742 107.08Z" fill="#FFCFCF"/>
<path d="M215.411 121.2L150.731 106.76C150.055 106.543 149.483 106.081 149.128 105.466C148.773 104.85 148.66 104.125 148.811 103.43C148.835 103.106 148.923 102.79 149.069 102.501C149.215 102.211 149.417 101.952 149.664 101.741C149.91 101.529 150.195 101.368 150.504 101.266C150.812 101.165 151.137 101.126 151.461 101.15H151.631L216.311 115.59C216.988 115.807 217.559 116.269 217.914 116.884C218.269 117.5 218.382 118.226 218.231 118.92C218.207 119.244 218.12 119.56 217.973 119.85C217.827 120.14 217.625 120.398 217.379 120.61C217.133 120.821 216.847 120.982 216.539 121.084C216.23 121.185 215.905 121.225 215.581 121.2H215.411Z" fill="#FFCFCF"/>
<path d="M213.29 133.14L148.61 118.69C147.934 118.475 147.363 118.015 147.008 117.401C146.653 116.787 146.539 116.063 146.69 115.37C146.738 114.715 147.045 114.107 147.541 113.677C148.038 113.248 148.685 113.033 149.34 113.08H149.51L214.19 127.53C214.866 127.747 215.438 128.209 215.793 128.824C216.148 129.44 216.261 130.166 216.11 130.86C216.059 131.515 215.75 132.123 215.251 132.55C214.753 132.978 214.105 133.19 213.45 133.14H213.29Z" fill="#FFCFCF"/>
<path d="M210.792 146L146.112 131.55C145.438 131.333 144.868 130.873 144.513 130.26C144.158 129.646 144.044 128.923 144.192 128.23C144.215 127.905 144.302 127.588 144.447 127.297C144.593 127.006 144.795 126.747 145.041 126.534C145.287 126.321 145.573 126.159 145.882 126.057C146.191 125.955 146.518 125.916 146.842 125.94H147.012L211.692 140.39C212.367 140.607 212.936 141.067 213.291 141.681C213.646 142.294 213.76 143.017 213.612 143.71C213.588 144.035 213.5 144.352 213.353 144.642C213.206 144.933 213.003 145.191 212.756 145.403C212.509 145.615 212.222 145.776 211.913 145.877C211.603 145.978 211.277 146.016 210.952 145.99L210.792 146Z" fill="#FFCFCF"/>
<path d="M207.88 160.12L143.2 145.68C142.523 145.463 141.952 145.001 141.597 144.386C141.242 143.77 141.129 143.044 141.28 142.35C141.304 142.026 141.392 141.71 141.538 141.42C141.684 141.131 141.886 140.872 142.132 140.661C142.378 140.449 142.664 140.288 142.972 140.186C143.281 140.085 143.606 140.046 143.93 140.07H144.1L208.78 154.51C209.457 154.727 210.028 155.189 210.383 155.804C210.738 156.42 210.851 157.146 210.7 157.84C210.649 158.495 210.34 159.103 209.842 159.53C209.343 159.958 208.695 160.17 208.04 160.12H207.88Z" fill="#FFCFCF"/>
<path opacity="0.15" d="M205.932 121.74C205.478 118.176 204.325 114.736 202.541 111.616C200.756 108.497 198.375 105.76 195.532 103.562C192.689 101.364 189.441 99.7476 185.973 98.8053C182.506 97.8629 178.886 97.6132 175.322 98.0704C171.757 98.5247 168.317 99.677 165.198 101.462C162.079 103.246 159.342 105.628 157.144 108.47C154.946 111.313 153.329 114.561 152.387 118.029C151.444 121.497 151.195 125.116 151.652 128.68C152.489 135.228 155.664 141.252 160.593 145.642C165.522 150.033 171.872 152.493 178.472 152.57L179.332 159.31L177.062 159.6L181.722 196.03C181.832 196.884 182.275 197.659 182.956 198.186C183.636 198.713 184.498 198.948 185.352 198.84L190.972 198.12C191.395 198.067 191.804 197.931 192.174 197.72C192.545 197.509 192.87 197.226 193.131 196.889C193.392 196.552 193.584 196.166 193.695 195.755C193.807 195.343 193.837 194.913 193.782 194.49L189.122 158.05L186.852 158.35L185.992 151.61C192.36 149.876 197.887 145.897 201.552 140.407C205.216 134.917 206.772 128.287 205.932 121.74ZM156.562 128.06C156.186 125.141 156.389 122.176 157.16 119.335C157.931 116.494 159.254 113.833 161.054 111.504C162.854 109.174 165.095 107.223 167.65 105.76C170.204 104.298 173.022 103.353 175.942 102.98C178.861 102.606 181.826 102.81 184.666 103.581C187.507 104.353 190.167 105.676 192.496 107.476C194.825 109.275 196.777 111.516 198.24 114.07C199.702 116.624 200.648 119.441 201.022 122.36C201.402 125.282 201.202 128.25 200.433 131.095C199.664 133.939 198.342 136.604 196.542 138.936C194.742 141.269 192.499 143.223 189.942 144.688C187.385 146.152 184.565 147.098 181.642 147.47C178.72 147.845 175.754 147.639 172.912 146.866C170.069 146.093 167.408 144.767 165.078 142.965C162.749 141.162 160.798 138.918 159.336 136.36C157.875 133.803 156.932 130.982 156.562 128.06Z" fill="#232323"/>
<path opacity="0.2" d="M180.69 146.98C194.011 146.98 204.81 136.181 204.81 122.86C204.81 109.539 194.011 98.7402 180.69 98.7402C167.369 98.7402 156.57 109.539 156.57 122.86C156.57 136.181 167.369 146.98 180.69 146.98Z" fill="#FFE8E8"/>
<path opacity="0.6" d="M193.931 135.18L193.811 135.09C193.701 135.001 193.611 134.891 193.544 134.767C193.477 134.643 193.436 134.507 193.422 134.366C193.408 134.226 193.422 134.084 193.463 133.949C193.504 133.814 193.571 133.689 193.661 133.58C193.945 133.261 194.212 132.927 194.461 132.58C195.73 130.77 196.63 128.728 197.109 126.57C197.589 124.412 197.638 122.181 197.254 120.004C196.871 117.827 196.062 115.747 194.874 113.883C193.686 112.019 192.142 110.407 190.331 109.14C189.095 108.276 187.75 107.58 186.331 107.07C186.065 106.967 185.85 106.763 185.734 106.503C185.618 106.243 185.61 105.947 185.711 105.68C185.812 105.424 186.006 105.215 186.255 105.097C186.504 104.978 186.788 104.958 187.051 105.04C191.793 106.738 195.667 110.249 197.822 114.802C199.977 119.355 200.235 124.577 198.541 129.32C197.972 130.917 197.191 132.43 196.221 133.82C195.931 134.23 195.631 134.63 195.321 135.01C195.146 135.197 194.911 135.317 194.657 135.348C194.403 135.379 194.146 135.32 193.931 135.18Z" fill="white"/>
<path d="M187.655 147.401L180.137 148.363L181.421 158.401L188.94 157.44L187.655 147.401Z" fill="#3F3F3F"/>
<path d="M177.22 95.7203C173.656 96.1747 170.216 97.327 167.096 99.1115C163.977 100.896 161.24 103.278 159.042 106.12C156.844 108.963 155.228 112.211 154.285 115.679C153.343 119.147 153.093 122.766 153.55 126.33C154.473 133.529 158.217 140.067 163.959 144.506C169.701 148.945 176.971 150.921 184.17 150C187.734 149.545 191.174 148.392 194.292 146.607C197.411 144.822 200.147 142.44 202.345 139.598C204.543 136.755 206.16 133.508 207.103 130.041C208.045 126.573 208.296 122.954 207.84 119.39C207.385 115.825 206.231 112.385 204.446 109.266C202.66 106.147 200.278 103.41 197.434 101.212C194.591 99.0135 191.342 97.3972 187.874 96.455C184.405 95.5127 180.785 95.2631 177.22 95.7203ZM202.93 120.02C203.681 125.917 202.059 131.871 198.421 136.572C194.783 141.273 189.427 144.337 183.53 145.09C180.611 145.463 177.647 145.258 174.807 144.485C171.967 143.713 169.307 142.388 166.979 140.588C164.651 138.787 162.701 136.546 161.239 133.991C159.777 131.437 158.833 128.62 158.46 125.7C158.087 122.781 158.293 119.817 159.065 116.977C159.838 114.137 161.162 111.477 162.963 109.149C164.764 106.821 167.005 104.871 169.559 103.409C172.114 101.947 174.931 101.003 177.85 100.63C180.768 100.256 183.732 100.46 186.571 101.231C189.41 102.001 192.07 103.324 194.398 105.123C196.726 106.921 198.676 109.161 200.139 111.714C201.601 114.266 202.546 117.082 202.92 120L202.93 120.02Z" fill="#474747"/>
<path d="M178.969 157.24L191.019 155.7L195.319 189.33C195.421 190.122 195.367 190.925 195.158 191.695C194.95 192.466 194.591 193.187 194.104 193.819C193.616 194.45 193.009 194.979 192.316 195.376C191.624 195.773 190.86 196.029 190.069 196.13C188.47 196.334 186.855 195.895 185.58 194.908C184.304 193.922 183.473 192.469 183.269 190.87L178.969 157.24Z" fill="#474747"/>
<path d="M159.92 82.6203C159.713 82.6133 159.514 82.5421 159.349 82.4167C159.184 82.2914 159.062 82.1179 159 81.9203C158.537 80.2737 158.157 78.6049 157.86 76.9203C157.829 76.6741 157.891 76.4252 158.033 76.2219C158.175 76.0186 158.388 75.8755 158.63 75.8203C158.876 75.7893 159.125 75.851 159.329 75.9933C159.532 76.1356 159.675 76.3484 159.73 76.5903C160.01 78.2003 160.38 79.8303 160.83 81.4403C160.888 81.6839 160.852 81.9403 160.73 82.1588C160.608 82.3773 160.408 82.542 160.17 82.6203C160.084 82.6302 159.997 82.6302 159.91 82.6203H159.92ZM158.19 72.6203C157.952 72.6098 157.725 72.5143 157.551 72.3511C157.376 72.1878 157.266 71.9677 157.24 71.7303C157.19 70.8203 157.16 69.9003 157.16 69.0003C157.16 68.1003 157.16 67.3503 157.23 66.5503C157.257 66.3046 157.375 66.0777 157.559 65.9133C157.744 65.749 157.983 65.6588 158.23 65.6603C158.476 65.6875 158.703 65.8048 158.867 65.9894C159.032 66.1741 159.122 66.4131 159.12 66.6603C159.12 67.4203 159.05 68.2103 159.05 68.9903C159.05 69.7703 159.05 70.7303 159.14 71.6003C159.142 71.8475 159.052 72.0866 158.887 72.2712C158.723 72.4559 158.496 72.5731 158.25 72.6003L158.19 72.6203ZM158.84 62.5403H158.64C158.411 62.4776 158.212 62.3355 158.078 62.1395C157.945 61.9435 157.885 61.7063 157.91 61.4703C158.26 59.7623 158.762 58.089 159.41 56.4703C159.453 56.3536 159.52 56.2466 159.604 56.1556C159.689 56.0646 159.792 55.9914 159.905 55.9403C160.019 55.8891 160.141 55.861 160.266 55.8576C160.39 55.8541 160.514 55.8755 160.63 55.9203C160.858 56.018 161.042 56.1969 161.145 56.4224C161.249 56.6479 161.265 56.9037 161.19 57.1403C161.19 57.1403 161.19 57.1403 161.19 57.1903C160.58 58.7039 160.112 60.2706 159.79 61.8703C159.738 62.0806 159.62 62.2684 159.452 62.4055C159.284 62.5426 159.077 62.6215 158.86 62.6303L158.84 62.5403ZM183.73 62.2403C182.453 62.2463 181.195 61.9336 180.07 61.3303C179.961 61.2717 179.864 61.1919 179.786 61.0956C179.707 60.9994 179.649 60.8885 179.613 60.7695C179.578 60.6505 179.567 60.5257 179.58 60.4023C179.593 60.2788 179.631 60.1592 179.69 60.0503C179.748 59.9401 179.827 59.8424 179.923 59.763C180.019 59.6836 180.13 59.6241 180.249 59.5878C180.368 59.5515 180.493 59.5392 180.617 59.5517C180.741 59.5641 180.861 59.6011 180.97 59.6603C182.265 60.3376 183.764 60.5122 185.18 60.1503C185.3 60.1153 185.425 60.1044 185.549 60.1182C185.672 60.132 185.792 60.1702 185.901 60.2307C186.01 60.2912 186.106 60.3727 186.183 60.4704C186.26 60.5682 186.317 60.6804 186.35 60.8003C186.385 60.9198 186.396 61.0451 186.382 61.1689C186.369 61.2926 186.33 61.4124 186.27 61.5213C186.209 61.6301 186.128 61.7259 186.03 61.803C185.932 61.8801 185.82 61.9369 185.7 61.9703C185.051 62.1613 184.377 62.2556 183.7 62.2503L183.73 62.2403ZM188.95 58.6403C188.685 58.6403 188.431 58.535 188.243 58.3474C188.056 58.1599 187.95 57.9056 187.95 57.6403C187.95 57.5276 187.97 57.4157 188.01 57.3103C188.265 56.6251 188.4 55.9013 188.41 55.1703C188.411 54.6214 188.33 54.0754 188.17 53.5503C188.129 53.4073 188.079 53.267 188.02 53.1303C187.932 52.8983 187.934 52.6419 188.024 52.4109C188.115 52.1799 188.288 51.9908 188.51 51.8803C188.743 51.7931 189.001 51.796 189.232 51.8885C189.463 51.9809 189.651 52.1563 189.76 52.3803C189.85 52.574 189.923 52.7746 189.98 52.9803C190.2 53.6929 190.311 54.4346 190.31 55.1803C190.309 56.1553 190.14 57.1228 189.81 58.0403C189.736 58.2199 189.612 58.3741 189.452 58.4842C189.293 58.5943 189.104 58.6555 188.91 58.6603L188.95 58.6403ZM177.78 57.4703C177.543 57.4602 177.318 57.3661 177.143 57.2049C176.969 57.0437 176.858 56.8259 176.83 56.5903C176.83 56.4103 176.83 56.2303 176.83 56.0403C176.891 54.3538 177.332 52.7028 178.12 51.2103C178.243 50.9934 178.442 50.8301 178.679 50.7525C178.916 50.6748 179.173 50.6883 179.4 50.7903C179.617 50.913 179.78 51.1122 179.858 51.349C179.936 51.5858 179.922 51.843 179.82 52.0703C179.156 53.3025 178.787 54.6715 178.74 56.0703C178.74 56.2103 178.74 56.3403 178.74 56.4703C178.757 56.7181 178.674 56.9624 178.511 57.1498C178.348 57.3371 178.118 57.4524 177.87 57.4703H177.78ZM162.7 53.2603C162.445 53.245 162.206 53.133 162.032 52.947C161.857 52.7611 161.76 52.5155 161.76 52.2603C161.764 52.0677 161.823 51.8802 161.93 51.7203C162.967 50.2502 164.241 48.9626 165.7 47.9103C165.911 47.7796 166.162 47.7318 166.406 47.7761C166.65 47.8205 166.869 47.9538 167.02 48.1503C167.15 48.3578 167.2 48.6057 167.159 48.8471C167.119 49.0886 166.991 49.3068 166.8 49.4603C165.515 50.3887 164.393 51.5242 163.48 52.8203C163.389 52.9419 163.271 53.0411 163.136 53.1104C163.001 53.1797 162.852 53.2173 162.7 53.2203V53.2603ZM206.41 51.6503C206.269 51.6497 206.129 51.619 206 51.5603C204.46 50.8303 202.91 50.1603 201.41 49.5603C201.293 49.5172 201.187 49.4511 201.096 49.3659C201.005 49.2807 200.933 49.1782 200.882 49.0645C200.832 48.9507 200.805 48.828 200.803 48.7036C200.801 48.5793 200.824 48.4557 200.87 48.3403C200.97 48.1141 201.149 47.9327 201.375 47.8312C201.6 47.7296 201.855 47.7151 202.09 47.7903C203.64 48.3803 205.23 49.0603 206.82 49.7903C206.932 49.8438 207.032 49.9189 207.115 50.0113C207.198 50.1037 207.262 50.2116 207.303 50.3287C207.343 50.4458 207.361 50.5699 207.354 50.6938C207.346 50.8176 207.315 50.9388 207.26 51.0503C207.193 51.2229 207.077 51.3719 206.926 51.4787C206.775 51.5854 206.595 51.6451 206.41 51.6503ZM185.51 50.0503C185.33 50.0552 185.153 50.0065 185 49.9103C184.226 49.4241 183.409 49.0091 182.56 48.6703C182.352 48.759 182.12 48.7747 181.903 48.7148C181.685 48.6548 181.493 48.5229 181.36 48.3403L181.3 48.2203C181.07 48.1403 180.84 48.0803 180.61 48.0103C180.375 47.9321 180.176 47.7689 180.054 47.5527C179.932 47.3364 179.895 47.0825 179.95 46.8403C180.028 46.6047 180.192 46.4066 180.408 46.2846C180.624 46.1626 180.878 46.1255 181.12 46.1803C181.54 46.3003 181.96 46.4303 182.36 46.5703C183.736 45.858 185.231 45.4038 186.77 45.2303C187.019 45.209 187.266 45.2812 187.464 45.4329C187.662 45.5846 187.796 45.8048 187.84 46.0503C187.859 46.2972 187.785 46.5422 187.634 46.738C187.483 46.9338 187.264 47.0665 187.02 47.1103C186.26 47.2068 185.51 47.3742 184.78 47.6103C185.21 47.8303 185.62 48.0603 186.01 48.3103C186.212 48.4539 186.354 48.6674 186.407 48.9095C186.461 49.1515 186.423 49.4049 186.3 49.6203C186.211 49.7519 186.092 49.8605 185.953 49.937C185.814 50.0135 185.659 50.0558 185.5 50.0603L185.51 50.0503ZM196.93 48.0503H196.69C195.101 47.6219 193.484 47.3078 191.85 47.1103C191.609 47.085 191.387 46.9662 191.232 46.7794C191.076 46.5925 191.001 46.3524 191.02 46.1103C191.032 45.986 191.07 45.8655 191.13 45.7559C191.19 45.6463 191.271 45.5498 191.369 45.4724C191.467 45.3949 191.58 45.338 191.7 45.305C191.82 45.272 191.946 45.2636 192.07 45.2803C193.796 45.4889 195.503 45.8231 197.18 46.2803C197.416 46.3565 197.614 46.5173 197.738 46.7316C197.862 46.9458 197.902 47.1984 197.85 47.4403C197.78 47.627 197.657 47.7886 197.495 47.9044C197.332 48.0202 197.139 48.085 196.94 48.0903L196.93 48.0503ZM170.84 47.6003C170.584 47.5875 170.342 47.4765 170.165 47.2903C169.988 47.1042 169.89 46.8571 169.89 46.6003C169.898 46.3866 169.974 46.1809 170.107 46.0135C170.24 45.8461 170.424 45.7258 170.63 45.6703C172.369 45.2876 174.152 45.143 175.93 45.2403C176.178 45.2652 176.407 45.3815 176.573 45.5664C176.74 45.7513 176.831 45.9916 176.83 46.2403C176.825 46.3656 176.795 46.4886 176.742 46.602C176.688 46.7155 176.613 46.8171 176.52 46.901C176.427 46.9849 176.318 47.0492 176.199 47.0903C176.081 47.1314 175.955 47.1484 175.83 47.1403C174.227 47.06 172.619 47.1911 171.05 47.5303C170.981 47.5401 170.91 47.5401 170.84 47.5303V47.6003Z" fill="#FFC50D"/>
<path d="M256.62 96.3502C258.117 96.3502 259.33 95.1369 259.33 93.6402C259.33 92.1435 258.117 90.9302 256.62 90.9302C255.123 90.9302 253.91 92.1435 253.91 93.6402C253.91 95.1369 255.123 96.3502 256.62 96.3502Z" fill="#FFC50D"/>
<path d="M31.7813 164.56L33.7813 163.51C33.8521 163.472 33.9299 163.447 34.01 163.439C34.0902 163.431 34.1713 163.439 34.2484 163.462C34.3256 163.485 34.3974 163.524 34.4597 163.575C34.522 163.626 34.5735 163.689 34.6113 163.76C34.6774 163.882 34.702 164.023 34.6813 164.16L34.2913 166.39C34.2768 166.489 34.2855 166.591 34.3167 166.686C34.3479 166.782 34.4008 166.868 34.4713 166.94L36.0913 168.52C36.2055 168.636 36.2695 168.792 36.2695 168.955C36.2695 169.118 36.2055 169.274 36.0913 169.39C35.9987 169.488 35.8751 169.552 35.7413 169.57L33.5013 169.89C33.403 169.906 33.3098 169.945 33.2297 170.004C33.1496 170.063 33.085 170.141 33.0413 170.23L32.0413 172.23C31.9682 172.377 31.8398 172.489 31.6842 172.542C31.5286 172.594 31.3585 172.583 31.2113 172.51C31.0903 172.449 30.9921 172.351 30.9313 172.23L29.9313 170.23C29.8853 170.14 29.8187 170.063 29.737 170.004C29.6554 169.945 29.5609 169.906 29.4613 169.89L27.2313 169.57C27.1505 169.559 27.0726 169.532 27.0022 169.491C26.9318 169.45 26.8703 169.395 26.821 169.33C26.7718 169.265 26.7359 169.191 26.7153 169.112C26.6948 169.033 26.69 168.951 26.7013 168.87C26.7217 168.737 26.7848 168.614 26.8813 168.52L28.5013 166.94C28.5738 166.87 28.628 166.783 28.6594 166.687C28.6908 166.591 28.6983 166.489 28.6813 166.39L28.3013 164.16C28.287 164.081 28.2886 163.999 28.306 163.92C28.3234 163.841 28.3564 163.767 28.4029 163.701C28.4494 163.634 28.5085 163.578 28.5769 163.535C28.6453 163.492 28.7216 163.463 28.8013 163.45C28.9376 163.424 29.0786 163.445 29.2013 163.51L31.2013 164.56C31.2911 164.606 31.3905 164.63 31.4913 164.63C31.5921 164.63 31.6914 164.606 31.7813 164.56Z" fill="#FFC50D"/>
<path d="M69.0498 35.42C70.8227 35.42 72.2598 33.9828 72.2598 32.21C72.2598 30.4372 70.8227 29 69.0498 29C67.277 29 65.8398 30.4372 65.8398 32.21C65.8398 33.9828 67.277 35.42 69.0498 35.42Z" fill="#FFC50D"/>
<path d="M210.093 217.42C211.866 217.42 213.303 215.983 213.303 214.21C213.303 212.437 211.866 211 210.093 211C208.32 211 206.883 212.437 206.883 214.21C206.883 215.983 208.32 217.42 210.093 217.42Z" fill="#FFC50D"/>
<path d="M130.761 207.63C132.534 207.63 133.971 206.193 133.971 204.42C133.971 202.647 132.534 201.21 130.761 201.21C128.988 201.21 127.551 202.647 127.551 204.42C127.551 206.193 128.988 207.63 130.761 207.63Z" fill="#FFC50D"/>
<path d="M226.163 90.96C239.396 90.96 250.123 80.2328 250.123 67C250.123 53.7673 239.396 43.04 226.163 43.04C212.93 43.04 202.203 53.7673 202.203 67C202.203 80.2328 212.93 90.96 226.163 90.96Z" fill="#F35259"/>
<path d="M224.119 76.7202C223.779 76.6838 223.463 76.5247 223.231 76.2726C222.999 76.0205 222.867 75.6926 222.859 75.3502L225.199 55.5302C225.529 52.6902 227.379 50.3602 229.259 50.7302C231.139 51.1002 231.959 53.9602 231.189 56.7302L225.809 75.9502C225.669 76.2614 225.42 76.5111 225.109 76.6527C224.798 76.7943 224.447 76.8183 224.119 76.7202Z" fill="white"/>
<path d="M222.801 83.3903C222.214 83.2696 221.699 82.9229 221.366 82.4252C221.033 81.9274 220.909 81.3186 221.021 80.7303C221.139 80.1419 221.485 79.6239 221.983 79.2888C222.481 78.9537 223.091 78.8285 223.681 78.9403C224.269 79.0588 224.787 79.4046 225.122 79.9026C225.457 80.4006 225.583 81.0106 225.471 81.6003C225.352 82.1908 225.005 82.7105 224.505 83.0459C224.005 83.3813 223.392 83.5051 222.801 83.3903Z" fill="white"/>
<path d="M203.84 88.2499L205.41 77.3999L214.7 86.6999L203.84 88.2499Z" fill="#F35259"/>
</svg>
